<svg xmlns="http://www.w3.org/2000/svg" viewBox="0 0 1420.62 994.3">
  <ellipse cx="715.44" cy="850.25" rx="595.32" ry="144.05" fill="#55198b" opacity="0.1" style="isolation: isolate"/>
  <g>
    <path d="M1532.1,876.29C1385,818.2,1181.54,760.56,937.42,758.64,697.71,756.75,497,809.2,350.91,863.53a1244.36,1244.36,0,0,1-6-349.19q286.17-11.4,572.39-12.81,313.56-1.54,627.14,8.91a867.1,867.1,0,0,1,13.82,160A856.56,856.56,0,0,1,1532.1,876.29Z" transform="translate(-221.39 -20.21)" fill="#72707f"/>
    <path d="M345,514.34h0c.08,0,291.4-54.11,579.94-57,310.75-3.13,619.5,53.11,619.59,53.11h0s-308-8.33-618-7C926.45,503.44,806.64,504,345,514.34Z" transform="translate(-221.39 -20.21)" fill="#565260"/>
  </g>
  <g>
    <polygon points="650.07 683 599.64 864.23 607.21 864.23 656.39 683 650.07 683" fill="#d5ab78"/>
    <path d="M827.59,884.44h10.29L891.11,707l-16-6.21Z" transform="translate(-221.39 -20.21)" fill="#80582c"/>
    <polygon points="772.51 829.16 781.46 864.23 791.86 864.23 782.19 825.77 772.51 829.16" fill="#d5ab78"/>
    <path d="M985.24,846.22c4.74,16,8.75,29.15,11.54,38.21l-.7-.38,8.11.39-22.53-89c-4.35-3.62-6.34-3.67-7.36-3.13C970.49,794.35,974,808.15,985.24,846.22Z" transform="translate(-221.39 -20.21)" fill="#80582c"/>
    <ellipse cx="698.63" cy="654.24" rx="96.51" ry="37.54" fill="#a8a8a8"/>
  </g>
  <g>
    <path d="M1043,680.81l-14.9-43.57-7.44-26.07-5.59-13H981.59l-28,5.08,15.31,24.72,20.48,16.38s8.94,18.62,10.43,19.37,16.76,11.92,16.76,11.92l10.8,5.21Z" transform="translate(-221.39 -20.21)" fill="#575a89"/>
    <path d="M880.73,835,883,882.64s35.38,6.7,35,5.59,0-55.5,0-55.5Z" transform="translate(-221.39 -20.21)" fill="#575a89"/>
    <path d="M954.47,751.91v2.24q1.69,7.61,3.38,15.2l10.07,18.19c.56,9.68,3.7,15.32,6.67,18.75,4.29,5,12.66,10.43,12.66,10.43h0l21.6-25-5.47-17.13-21.72-22.72-2.94-16.06" transform="translate(-221.39 -20.21)" fill="#575a89"/>
    <path d="M896.22,418.64l-3.38,10.54-7.91,6.75-24.79,8.44-18.78,5.28-6.54,4.43-10.17,26.4-5.26,37.76-2.86,21.51-10,30.59-3.35,15.78,6.1,9.67L817,608.1l14.34,6.7,41.59-21.65L903,578l25.82-3.34,18,18.5,4.93,10.17,15.29,1,26.81-.48,36.29-1.91,11.47-6.21,7-19.6-7.46-12.43V548.36l-5.73-21-11-36.32-10.51-40.63-14.34-7.65-32-9.56-14.82-4.3q-2.41-5.46-4.85-10.9l-12.47-.85L909,418l-9.75.31Z" transform="translate(-221.39 -20.21)" fill="#575a89"/>
    <path d="M896.22,418.64l0,18.82,4.31,44.63,2.16,41.55,1.41,37.25L924.28,604l22.59-28.32V491.32q.52-36.68,1-73.36a133.4,133.4,0,0,0-50.83.49Z" transform="translate(-221.39 -20.21)" fill="#55198b"/>
    <polygon points="673.55 373.45 676.31 402.96 694.95 415.72 702.2 415.72 725.49 398.47 725.49 371.38 673.55 373.45" fill="#ffb9b9"/>
    <path d="M939.53,373.86a80.79,80.79,0,0,1,6.78,26.48c.46,6.16.56,18.34.56,18.34h0l-11.6,8.55c-2.9,2.15-6.89,5.11-11.69,8.7h-7.25l-5.19-3.69-13.44-9.07q-.29-2.88-.56-5.75c-.41-4.78-1.15-13.17-2.2-23.76-1.38-13.88-1.82-16.52-.28-19.06C900.81,364.44,929.32,371.16,939.53,373.86Z" transform="translate(-221.39 -20.21)" opacity="0.1" style="isolation: isolate"/>
    <circle cx="697.8" cy="344.79" r="43.95" fill="#ffb9b9"/>
    <path d="M872,641.67c-.19,3.17-.38,6.35-.56,9.52l2.61,42.89,6.28,39.23V782l-8.89,48.65,3.13,12,47.08,4.71,9.42-64.86,5.75-52.31-6.29-38-10.91-46-15.49-21.82Z" transform="translate(-221.39 -20.21)" fill="#2f2e41"/>
    <polygon points="757.33 796.47 762.37 817.28 764.05 827.13 768.07 838.09 780.83 836.08 785.53 838.09 848.3 808.89 837.55 795.13 827.25 795.13 806.67 778.01 782.17 761.56 768.07 774.65 763.04 788.75 757.33 796.47" fill="#2f2e41"/>
    <path d="M879,877.44c1.34.33,25.12-1.68,25.12-1.68l14.49,5.7L927,898.25v15.1l-5.37,7.72.33,22.16L896.82,957l-19.14,5.37-22.48-2.69,5.37-19.46L868,923.42l7-9.73,5.37-21.82Z" transform="translate(-221.39 -20.21)" fill="#2f2e41"/>
    <path d="M969.67,687.14l16-9.31,21.23-4.84h6.33l-13.41-20.48L989.78,628.3l-14.52-13.5-10.43-7.73h-14.9s1.12,20.11,3.73,26.44,13.4,43.58,13.4,43.58Z" transform="translate(-221.39 -20.21)" fill="#2f2e41"/>
    <polygon points="642.26 557.34 627.62 567.27 629.02 586.86 691.51 561.43 715.45 564.06 712.44 543.89 673.55 540.68 642.26 557.34" fill="#ffb9b9"/>
    <polyline points="675.5 534.52 660.73 553.91 666.88 577.92 720.44 572.94 740.76 581 739.22 555.76 704.5 537.29 673.55 534.52" fill="#ffb9b9"/>
    <path d="M953.87,764.4l-33.06-66.79-16.66-44.8-5.55-19.87-24.54,10.91-.42,43.22-19.06-12.83-14-10.52-14.41.39-11.3-22.21s6.62-17.53,8.57-17.53,22.21-27.66,22.21-27.66l49.09-27.66,26.1-2.73,19.48,2.34,13.25,22.59L959,622.42l6.62,34.29,10.52,33.89,15.59,33.9,5.06,7.79Z" transform="translate(-221.39 -20.21)" fill="#20202d"/>
    <path d="M817.34,674.11l11.18-13.41L839,637.61q6.39-22.18,12.79-44.35L844.82,595l-24.35,30.76L811,649.15s-4.84,12.29-4.84,13.41-3,11.55-3,11.55a10.15,10.15,0,0,0,6.42,3A10.31,10.31,0,0,0,817.34,674.11Z" transform="translate(-221.39 -20.21)" fill="#575a89"/>
  </g>
  <g>
    <path d="M873.07,381.8l-8.38-14.65a4.93,4.93,0,0,1-.61-3.41,3.59,3.59,0,0,1,1.17-2.18c1.75-1.4,4.51,0,4.78.15a6,6,0,0,1,2.1,1.88L880.45,381c.72,1.84.4,2.53.14,2.81C879.26,385.31,873.84,382.25,873.07,381.8Z" transform="translate(-221.39 -20.21)" fill="#ffb9b9"/>
    <path d="M964.91,380.91q3.14-7.83,6.26-15.68a4.93,4.93,0,0,0,.13-3.46,3.53,3.53,0,0,0-1.46-2c-1.93-1.14-4.47.64-4.72.82a5.88,5.88,0,0,0-1.81,2.15l-5.81,18.41c-.46,1.92,0,2.56.25,2.81C959.27,385.24,964.21,381.46,964.91,380.91Z" transform="translate(-221.39 -20.21)" fill="#ffb9b9"/>
  </g>
  <g>
    <g>
      <g>
        <path d="M621.52,870.33l-6.17,4.1L602.44,883a3.33,3.33,0,0,0-.39-2.18,3.39,3.39,0,0,0-2.09-1.55l18.9-12.58.17-.11.1.15Z" transform="translate(-221.39 -20.21)" fill="#ff9934"/>
        <path d="M600,879.28a.61.61,0,0,0,.23-.57.57.57,0,0,0-.22-.34l17.36-11.85,1.53.18.27,0Z" transform="translate(-221.39 -20.21)" fill="#f56a25"/>
        <path d="M624.28,902.39l-1.41.14-7.52-28.1,6.17-4.1Z" transform="translate(-221.39 -20.21)" fill="#ff9934"/>
      </g>
      <path d="M624.28,902.39l-1.41.14-7.52-28.1L602.44,883a3.33,3.33,0,0,0-.39-2.18,3.39,3.39,0,0,0-2.09-1.55.61.61,0,0,0,.23-.57.57.57,0,0,0-.22-.34l17.36-11.85,1.53.18.17-.11.1.15,2.39,3.59Z" transform="translate(-221.39 -20.21)" opacity="0.24"/>
      <g>
        <path d="M505.41,873.56l6.17,4.11,12.91,8.58a3.33,3.33,0,0,1,.39-2.18,3.39,3.39,0,0,1,2.09-1.56l-18.9-12.57-.17-.12-.1.15Z" transform="translate(-221.39 -20.21)" fill="#ff9934"/>
        <path d="M527,882.51a.59.59,0,0,1-.23-.57.57.57,0,0,1,.22-.33L509.6,869.75l-1.53.19-.27,0Z" transform="translate(-221.39 -20.21)" fill="#f56a25"/>
        <path d="M502.65,905.62l1.41.14q3.76-14.06,7.52-28.09l-6.17-4.11Z" transform="translate(-221.39 -20.21)" fill="#ff9934"/>
      </g>
      <path d="M502.65,905.62l1.41.14q3.76-14.06,7.52-28.09l12.91,8.58a3.33,3.33,0,0,1,.39-2.18,3.39,3.39,0,0,1,2.09-1.56.59.59,0,0,1-.23-.57.57.57,0,0,1,.22-.33L509.6,869.75l-1.53.19-.17-.12-.1.15-2.39,3.59Z" transform="translate(-221.39 -20.21)" opacity="0.23"/>
      <circle cx="378.9" cy="863.98" r="6.29" fill="#2f2e41"/>
      <circle cx="305.18" cy="867.24" r="6.29" fill="#2f2e41"/>
      <path d="M606.35,858.76c-4.48,17.4-24.12,27.74-40.77,28.85-19.52,1.29-43-9.58-48.08-29.75-6.08-24,16.37-51.32,42-52.6C587.77,803.85,612.57,834.6,606.35,858.76Z" transform="translate(-221.39 -20.21)" fill="#ff9934"/>
      <path d="M600,887.09l-71.23.67,2.6-12,64.46-.47Z" transform="translate(-221.39 -20.21)" fill="#565260"/>
      <circle cx="309.6" cy="869.56" r="6.29" fill="#939393"/>
      <circle cx="377.02" cy="868.18" r="6.29" fill="#939393"/>
      <path d="M551.94,850.32" transform="translate(-221.39 -20.21)" fill="#8e8e8e"/>
      <path d="M528.35,892.9,505.9,878l2.93-4.4,22.45,14.93a4.74,4.74,0,0,0-2.93,4.4Z" transform="translate(-221.39 -20.21)" fill="#ff9934"/>
      <path d="M531.25,888.48l-22.54-14.73,2.12-.27,20.44,14a.68.68,0,0,0-.25.38A.76.76,0,0,0,531.25,888.48Z" transform="translate(-221.39 -20.21)" fill="#f56a25"/>
      <path d="M504.31,915.87l8.85-33.07L505.9,878l-3.25,37.73Z" transform="translate(-221.39 -20.21)" fill="#ff9934"/>
      <path d="M600.47,892,622.92,877l-2.92-4.4-22.46,14.93a3.85,3.85,0,0,1,2.93,4.4Z" transform="translate(-221.39 -20.21)" fill="#ff9934"/>
      <path d="M597.54,887.56l22.57-14.76-2.12-.26-20.43,14a.64.64,0,0,1,.26.39A.71.71,0,0,1,597.54,887.56Z" transform="translate(-221.39 -20.21)" fill="#f56a25"/>
      <path d="M624.51,914.93l-8.85-33.07,7.26-4.83,3.26,37.73Z" transform="translate(-221.39 -20.21)" fill="#ff9934"/>
      <circle cx="340.52" cy="826.25" r="21.64" fill="#fff"/>
      <circle cx="340.52" cy="826.25" r="11.08" fill="#565260"/>
      <rect x="312.28" y="861.29" width="60.33" height="1.37" fill="#ff9934"/>
      <rect x="312.28" y="857.27" width="0.74" height="3.5" fill="#ff9934"/>
      <rect x="371.88" y="857.27" width="0.74" height="3.5" fill="#ff9934"/>
      <rect x="340.52" y="857.32" width="0.74" height="3.5" fill="#ff9934"/>
      <circle cx="324.13" cy="859" r="1.68" fill="#ff9934"/>
      <circle cx="360.53" cy="859" r="1.68" fill="#ff9934"/>
    </g>
    <g>
      <path d="M1316.79,844.88q.2,16.85.41,33.69l-44,11.21.11-44.1Z" transform="translate(-221.39 -20.21)" fill="#939393"/>
      <path d="M1248.23,882.66l-25,5.16-8.49,12.31,1.24,18.12,3.9,4.93,43.7.38,16.66-.38q-3.12-13.78-6.23-27.57l2.08-6.37a27.78,27.78,0,0,0-15.12-7.67A27.45,27.45,0,0,0,1248.23,882.66Z" transform="translate(-221.39 -20.21)" fill="#020202"/>
      <path d="M1355.09,905.74a30.53,30.53,0,0,1-6.54,13.34,14.58,14.58,0,0,1-9.7,5.22,2.08,2.08,0,0,1-1,.08c-10.71,0-16.14.11-29.69,0-5.36,0-8.05-.06-9.32,0a150.58,150.58,0,0,1-15.1,0l-.31,0a7,7,0,0,1-4.52-2.15,2.44,2.44,0,0,0-1.91-.63h-14c-.53,0-1.12.09-1.44-.53a1.79,1.79,0,0,1-1.3-1.72,1.94,1.94,0,0,1,1-1.86c.18-.11.46-.13.47-.43.3-.33.69-.21,1-.21h11.4c.81,0,.94-.2.7-.94s-.37-1.39-.59-2.07a15.89,15.89,0,0,1-.57-3c-.1-.77-.49-1-1.21-1h-5.78c-1.58,0-3.17,0-4.75,0a6.42,6.42,0,0,1-.88,0,3.67,3.67,0,0,1-1-.26h0l-.2-.09a2,2,0,0,1-1.64-2.1c.08-1.07.84-1.74,2.17-1.9a.94.94,0,0,1,.71-.36,4.56,4.56,0,0,1,.64,0h10.35c1.41,0,1.38,0,1.6-1.38a23.43,23.43,0,0,1,.84-3.87c.29-.83.15-1-.75-1-3.16,0-6.32,0-9.49,0-.68,0-1.48.17-1.85-.72-1-.84-1.2-1.58-.84-2.49a2.12,2.12,0,0,1,2.22-1.29l1.55,0a4.25,4.25,0,0,1,2-.37c3.22,0,6.45,0,9.67,0a2.8,2.8,0,0,0,2-.78,15.61,15.61,0,0,1,4.4-2.78h-3.29c-2,0-4,0-6,0-.47,0-.69-.37-1-.52a2,2,0,0,1-1.47-2.2,2,2,0,0,1,2-1.7c2.44,0,5.15,0,7.06,0,.51,0,.92,0,1.17,0,5.22-.16,9-.3,10.18-.32a6.49,6.49,0,0,0,2.08-.33,6.38,6.38,0,0,0,.82-.33c1.42-.7,2.87-1.31,4-1.87-4.87.35-8.43.24-8.94,0a4.92,4.92,0,0,1-.75-.44,3.9,3.9,0,0,1-.49-.43,1.93,1.93,0,0,1-.58-2.33,2,2,0,0,1,.51-.74,2.46,2.46,0,0,1,1.56-.51l9.07-.14c4.49.19,4.51-.23,8.47-.28a8.13,8.13,0,0,0,2.76-.49,6.11,6.11,0,0,0,1-.42c1.56-.81,3.18-1.48,4.68-2.15-3.2,0-6.51,0-9.82,0a1.73,1.73,0,0,1-1.72-1.05c-1.11-1.9-.22-3.43,2-3.44l6,0a5,5,0,0,1,2.27-.39h10.61a4.87,4.87,0,0,0,2.08-.45c1.31-.58,2.62-1.18,3.79-1.71-3.27,0-6.68,0-10.1,0a1.3,1.3,0,0,1-1.42-1.2c-.89-1.73,0-3.17,1.88-3.17h17.16a1.94,1.94,0,0,1,2.22,2,.77.77,0,0,0,.58.74c4,1.38,6.74,4.16,9,7.59.14.22.28.43.43.64.79.23.76.94.9,1.55.37.8.76,1.59,1.11,2.4a40,40,0,0,1,2.83,11.7A46.34,46.34,0,0,1,1355.09,905.74Z" transform="translate(-221.39 -20.21)" fill="#ff9934"/>
      <path d="M1283.57,924.26a1,1,0,0,1-.16.1,2.11,2.11,0,0,1-.83,0H1226a6.87,6.87,0,0,1-4.58-2.14,2.47,2.47,0,0,0-1.88-.66h-10.53a8.44,8.44,0,0,1-3.23-.39c-.25,0-.51,0-.77,0-.78,0-1.54,0-1.79-.92a1.68,1.68,0,0,1,.86-2,6.27,6.27,0,0,0,1.67-1.87,3.06,3.06,0,0,1,4.21-1c.81.53.88,1.1.21,1.81a.64.64,0,0,1,1.06.08,1.26,1.26,0,0,0,1.06.46c1.72,0,3.45,0,5.17,0,.6,0,.77-.17.52-.77a20.63,20.63,0,0,1-1.38-5.59c-.15-1.25-.26-1.33-1.51-1.34h-11c-.47,0-1,.11-1.34-.39-.24-.08-.48-.15-.71-.25a1.27,1.27,0,0,1-.86-1.32,1.53,1.53,0,0,1,1.21-1.54,2.82,2.82,0,0,1,1.73-.39h10.79c1.4,0,1.44,0,1.63-1.39a26.36,26.36,0,0,1,1.1-5c.25-.71.09-.89-.75-.89-3.17,0-6.33,0-9.49,0-.43,0-.86,0-1.29,0s-.92-.16-1.09-.69a1.78,1.78,0,0,1-.31-2.25,1.45,1.45,0,0,1,1.35-.57c.36,0,.73,0,1.1,0a3.66,3.66,0,0,1,1.76-.36c3.42,0,6.85,0,10.27,0a3.57,3.57,0,0,0,2.57-1,22,22,0,0,1,6.25-3.64c-2.32.08-4.88,0-7.44,0-1.12,0-2.24,0-3.37,0a1.09,1.09,0,0,1-1-.37h0c-.22-.07-.45-.11-.66-.2a1.39,1.39,0,0,1-.91-1.65,1.43,1.43,0,0,1,1.43-1.24c2,0,4,0,6,0l1.2,0a10.25,10.25,0,0,1,3.4-.37c2.55,0,5.11,0,7.66,0a2.78,2.78,0,0,0,1.3-.27,1.75,1.75,0,0,0,.34-.28l.16-.11a9.91,9.91,0,0,0,2.55-1.17,1.63,1.63,0,0,0,.62-1.22h0a.22.22,0,0,0,0-.12.41.41,0,0,0-.32-.17,1.57,1.57,0,0,0-.29,0c-1.9-.05-3.8,0-5.69,0a2.53,2.53,0,0,1-1-.29,1.51,1.51,0,0,1-.89-1.63,1.45,1.45,0,0,1,.17-.69,1.73,1.73,0,0,1,1.8-.89c1.75,0,3.5,0,5.25,0a7.31,7.31,0,0,1,3.37-.36h.61c.87,0,1.53-.1,1.9-1A1.73,1.73,0,0,1,1246,877a.35.35,0,0,1,.11,0,.61.61,0,0,1,.37.42s0,0,0,0c.12.47-.29.67-.51,1-.36.51-.27.71.34.73a7.43,7.43,0,0,1,2.52.31h.08a1.29,1.29,0,0,1,1.34,1.11l2.35,2.18-4.84,2.26-6.18,2.86-11.39,5.28c-.25.12-.67.08-.65.55-.24.46-.74.51-1.14.71a20.71,20.71,0,0,0-3.78,2.2,10.34,10.34,0,0,0-3.81,6.26,22.69,22.69,0,0,0,1,12.79,9.38,9.38,0,0,0,3.08,4.28,4.13,4.13,0,0,0,2.55.86c1,0,2.08,0,3.11,0,.31,0,.64-.08.88.22s.59.17.88.17q14.22,0,28.46,0c.28,0,.58.09.82-.16a5,5,0,0,0,1.45.15c4.79,0,9.59,0,14.39,0a2.11,2.11,0,0,1,1.64.6A8.83,8.83,0,0,0,1283.57,924.26Z" transform="translate(-221.39 -20.21)" fill="#ff9934"/>
      <path d="M1218.25,899.28a19,19,0,0,0-1.34,6.12c-.06.92-.43,1.11-1.22,1.11-4.44,0-8.87,0-13.3,0A2.43,2.43,0,0,0,1203,905a18.43,18.43,0,0,1,1.88-6.58,3.1,3.1,0,0,0,.13-.4,4.67,4.67,0,0,0,1.85.33h10.8C1218.61,898.38,1218.61,898.4,1218.25,899.28Z" transform="translate(-221.39 -20.21)" fill="#565260"/>
      <path d="M1218.21,918.09c-2.13,0-4.26.13-6.39,0-.58,0-1.48-.08-2.58-.07l-5.1.17q-.12-.82-.24-1.68-.53-3.51-1.15-6.89c4.35,0,8.69,0,13,0,.71,0,1.06.1,1.15.95a20.17,20.17,0,0,0,1.73,6.81C1218.9,917.84,1218.83,918.1,1218.21,918.09Z" transform="translate(-221.39 -20.21)" fill="#565260"/>
      <path d="M1229.41,889.92a6.81,6.81,0,0,1-1.94,1,21,21,0,0,0-6,3.73,2,2,0,0,1-1.4.59l-12.95,0a10,10,0,0,1,3.71-2.37c1.7-.82,3.37-1.68,5.05-2.53.13-.07.19-.27.28-.41h13.21Z" transform="translate(-221.39 -20.21)" fill="#565260"/>
      <path d="M1304.77,874a4.27,4.27,0,0,0,2.61.68c3.1,0,6.21,0,9.31,0a1.5,1.5,0,0,1,.91.12,42.63,42.63,0,0,1-4,1.95,3.9,3.9,0,0,0-.47.2c-2.55,1.69-5.81,1.49-7,1.58s-2.26.09-4.62.06c-2,0-3.66-.07-4.82-.13a31.19,31.19,0,0,1,2.81-1.47,2.08,2.08,0,0,0,.85-.55,27.64,27.64,0,0,0,4.23-2A.48.48,0,0,0,1304.77,874Z" transform="translate(-221.39 -20.21)" fill="#565260"/>
      <path d="M1239.4,883.9c-.08,1.05-1.52,1.76-2.27,2.14a8.07,8.07,0,0,1-2.06.77c-1.94.41-6.22.46-11.8,0a38.37,38.37,0,0,1,7.74-3.9l.78-.27c.38.06,1,.14,1.72.21a20,20,0,0,0,3.61.17c.76-.09,1.67-.3,2.07.18a.83.83,0,0,1,.11.2h0A.89.89,0,0,1,1239.4,883.9Z" transform="translate(-221.39 -20.21)" fill="#565260"/>
      <path d="M1226.21,924.25a.34.34,0,0,1-.17.13,1.61,1.61,0,0,1-.38,0H1211.6a.77.77,0,0,1-.42-.08,6.28,6.28,0,0,1-4-2.16,4.45,4.45,0,0,0-1.31-.95c4.81,0,9.61,0,14.41,0,.87,0,1.31.57,1.8,1A7.78,7.78,0,0,0,1226.21,924.25Z" transform="translate(-221.39 -20.21)" fill="#565260"/>
      <path d="M1332.8,867.85c-1.4.65-2.83,1.26-4.21,2a8.07,8.07,0,0,1-4,.76c-2.68,0-5.35,0-8,0h-3.79a17.35,17.35,0,0,1,3.29-1.76l.52-.24c.83-.38,1.71-.69,2.55-1.05.36-.15.8-.21.87-.72a2.2,2.2,0,0,0,2,.84c3.28,0,6.55,0,9.83,0h.93Z" transform="translate(-221.39 -20.21)" fill="#565260"/>
      <path d="M1246.08,877a.93.93,0,0,1,0,.13,2.35,2.35,0,0,0-1.86,1.92c-.08.48-.39.5-.75.5h-1.8l-3.37,0a13.79,13.79,0,0,1,3.38-1.92l.65-.32c.55-.3,1.14-.53,1.71-.81.28-.14.55-.32.53-.7l1.15.89C1245.91,876.71,1246.12,876.76,1246.08,877Z" transform="translate(-221.39 -20.21)" fill="#565260"/>
      <path d="M1231.39,921a13.65,13.65,0,0,1-5.55-.1,5.92,5.92,0,0,1-3.15-2.69,15.85,15.85,0,0,1-2.5-6.92,25.19,25.19,0,0,1,.29-8.91,10.73,10.73,0,0,1,5.6-7.25c.81-.44,1.64-.83,2.45-1.26a1.34,1.34,0,0,1,1-.2,8.14,8.14,0,0,1,3.89,3.64,20.45,20.45,0,0,1,2.67,11.66,18.75,18.75,0,0,1-3.34,10.59A7.08,7.08,0,0,1,1231.39,921Z" transform="translate(-221.39 -20.21)" fill="#565260"/>
      <path d="M1259.88,909.46h13.19c.67,0,1,.18,1,.91a21,21,0,0,0,1.41,5.93c.33.87.3.93-.61.93h-12.07a2.39,2.39,0,0,1-1.09-.18,21.7,21.7,0,0,1-1.42-6.75C1260.27,910,1260.32,909.59,1259.88,909.46Z" transform="translate(-221.39 -20.21)" fill="#565260"/>
      <path d="M1262.46,898.05a4.5,4.5,0,0,0,1.85.33h10.18c.94,0,1,.11.68,1a16.28,16.28,0,0,0-1.1,5.38c0,.65-.36.73-.89.73-4.26,0-8.52,0-12.77,0A22.79,22.79,0,0,1,1262.46,898.05Z" transform="translate(-221.39 -20.21)" fill="#565260"/>
      <path d="M1273.15,889.78a16.49,16.49,0,0,0,3.44.13c2.69,0,5.39,0,8.11,0-.06.38-.37.39-.57.49a18.52,18.52,0,0,0-5.37,3.53,1.19,1.19,0,0,1-1,.3l-12.42,0a5.91,5.91,0,0,1,1.76-1.18c1.86-.94,3.73-1.85,5.59-2.8C1272.9,890.16,1273.34,890.22,1273.15,889.78Z" transform="translate(-221.39 -20.21)" fill="#565260"/>
      <path d="M1288.89,882.16a22.43,22.43,0,0,0,2.21.51,26,26,0,0,0,9.31,0c0,.34-.27.4-.46.49l-5.56,2.53a2.73,2.73,0,0,1-1.16.26c-3.45,0-6.89,0-10.34,0a1.84,1.84,0,0,1-.92-.19c1-.51,2-1,3.07-1.55.8-.4,1.78-.79,3.06-1.55C1288.44,882.45,1288.71,882.28,1288.89,882.16Z" transform="translate(-221.39 -20.21)" fill="#565260"/>
      <path d="M1248.85,879.55h-2.94c-.78,0-.92-.24-.57-.94a3.31,3.31,0,0,1,1.07-1.1c0-.08.1-.08.16,0a21.52,21.52,0,0,0,2.25,1.9s.08.05.07.09S1248.86,879.55,1248.85,879.55Z" transform="translate(-221.39 -20.21)" fill="#ff9934"/>
      <path d="M1320.38,920.76a34,34,0,0,1-9.14-14.48,36.28,36.28,0,0,1-1.5-10.78,44,44,0,0,1,1.78-12.8c0-.18.2-.37,0-.57l14.1-7.75v0c-2.41,3-4.28,5.42-4.42,5.61-1.57,2-4.56,9.18-4.22,18,.15,3.9.44,11.56,6,18a23.77,23.77,0,0,0,5.92,4.94Z" transform="translate(-221.39 -20.21)" fill="#565260"/>
      <path d="M1242.73,882.67h1c.22,0,.5,0,.57.25s-.18.39-.39.49c-.65.3-1.29.61-1.95.88-.27.12-.61.37-.87.06a1.32,1.32,0,0,1-.1-1.15.61.61,0,0,1,.67-.53Z" transform="translate(-221.39 -20.21)" fill="#ff9934"/>
      <ellipse cx="1114.99" cy="876.48" rx="18.52" ry="26.09" fill="#565260"/>
      <ellipse cx="1065.8" cy="887.31" rx="12.13" ry="15.65" fill="#565260"/>
      <ellipse cx="1065.8" cy="887.26" rx="5.54" ry="7.34" fill="#ff9934"/>
      <path d="M1223.09,908.11a8.47,8.47,0,0,1,.53-3.28,2.4,2.4,0,0,1,.86-1.16,1,1,0,0,1,1.52.09,5.64,5.64,0,0,1,1.21,3.34,7.72,7.72,0,0,1-.52,4c-.29.7-.68,1.38-1.56,1.4s-1.2-.66-1.49-1.34A6.53,6.53,0,0,1,1223.09,908.11Z" transform="translate(-221.39 -20.21)" fill="#ff9934"/>
      <path d="M1343.92,895.51a8,8,0,0,1-1.12,4.77,6.83,6.83,0,0,1-2.17,2.31,5.12,5.12,0,0,1-5.55,0,7.18,7.18,0,0,1-3.14-4.64,9.07,9.07,0,0,1,1.31-7.54,6.08,6.08,0,0,1,1.85-1.78,5.14,5.14,0,0,1,5.48,0,6.25,6.25,0,0,1,2.27,2.46A7.06,7.06,0,0,1,1343.92,895.51Z" transform="translate(-221.39 -20.21)" fill="#ff9934"/>
      <path d="M1225.18,903.37l35.94,1.45,0,7.75-35.95,0Z" transform="translate(-221.39 -20.21)" fill="#ff9934"/>
      <path d="M1273.26,845.68l-.11,44.1-31.59-1.33v-.58l0-3.43c0-.59,0-1.18,0-1.77l0-3.12v-.38c0-.52,0-1,0-1.56q.13-16.36.26-32.73Z" transform="translate(-221.39 -20.21)" fill="#939393"/>
      <path d="M1316.79,844.88c0,.15-4.82.07-20,.36-16.25.32-16.56.52-23.58.44-6.14-.07-6.42-.24-19.4-.51-9-.19-12-.18-12-.29,0-.29,16.78-1,34.85-1.09C1297.86,843.71,1316.79,844.56,1316.79,844.88Z" transform="translate(-221.39 -20.21)" fill="#565260"/>
      <ellipse cx="1036.85" cy="847.15" rx="12.41" ry="17.37" fill="#565260"/>
      <ellipse cx="1036.85" cy="847.53" rx="7.62" ry="10.67" fill="#ff9934"/>
      <path d="M1281.48,873.42l-1.24.43,0-16.32,1.31.12Q1281.53,865.54,1281.48,873.42Z" transform="translate(-221.39 -20.21)" fill="#ff9934"/>
      <path d="M1285.11,873.2l-1.24.42,0-16.09,1.31.12Q1285.17,865.42,1285.11,873.2Z" transform="translate(-221.39 -20.21)" fill="#ff9934"/>
      <path d="M1289.07,873l-1.24.41,0-15.86,1.32.12Z" transform="translate(-221.39 -20.21)" fill="#ff9934"/>
      <path d="M1313.42,881.28l-18.23,8.08-5.64,2.26a16.71,16.71,0,0,1,5.64,3.51,17,17,0,0,1,4.88,9.09,17.56,17.56,0,0,1-7,17.73q9.48-.57,19.3-.94,4-.15,8-.25l-4.8-20.63Z" transform="translate(-221.39 -20.21)" fill="#565260"/>
    </g>
    <g>
      <circle cx="1033.16" cy="427.19" r="46.18" fill="#72707f"/>
      <path d="M1208.52,443.56c-.2,8.68,25.17,18.94,48.42,18.11,21.83-.78,44.35-11.43,43.61-18.26-.11-1-.82-3-13.2-7.25-16.38-5.67-33.74-11.67-54.55-6.32C1228.13,431,1208.7,436,1208.52,443.56Z" transform="translate(-221.39 -20.21)" fill="#565260"/>
      <path d="M1302.89,439.32c-8.5,20.91-88.2,20.91-96.69,0-5.55-13.66,15.21-46.18,48.34-46.18S1308.43,425.66,1302.89,439.32Z" transform="translate(-221.39 -20.21)" fill="#ff9934"/>
      <circle cx="1031.74" cy="407.97" r="21.39" fill="#565260"/>
      <circle cx="1031.74" cy="407.97" r="10.09" fill="#ff9934"/>
    </g>
    <path d="M1444.67,182.32c99.42,5.86,161.43,256.1,180.15,379.44,18.44,121.54,27.66,182.31-1.7,219-99.71,124.7-395.41-133.83-825.59-73.91C511.08,746.78,356.27,901.24,264,820.44c-62.72-54.9-42.78-171.32-24-280.84C290.8,242.92,486.3-2.57,547,21.89c51.73,20.86-28,224.44,63.09,283,75.58,48.57,214.85-37.19,229.87-46.44,128.1-78.87,133.83-180,199.15-180.69,96.34-1,131.35,218.44,236.14,219.92C1353.08,298.79,1374.77,178.2,1444.67,182.32Z" transform="translate(-221.39 -20.21)" fill="#55198b" opacity="0.1" style="isolation: isolate"/>
  </g>
  <path d="M879.6,382.83c2-10.71,10.81-13.62,19.06-17l1.17,1-7.39,5.76c14.66.3,46.68-14.93,62-32,2.66,4.71,2.84,9.71,3.51,14.63.7,5.1,2.17,10.14,1.79,15.4,7.18-11.25,11.33-23.09,10.56-35.91A12.24,12.24,0,0,0,967,327c-12.45-13-26.71-24.36-48.35-24.89-22.4-.56-46.19,8.86-49.66,29.92-2.09,12.71-1.24,25.93,5.8,38.17C876.77,373.6,877.61,377.46,879.6,382.83Z" transform="translate(-221.39 -20.21)" fill="#231f20"/>
</svg>
