<svg xmlns="http://www.w3.org/2000/svg" viewBox="0 0 1867.62 1076.95">
  <g>
    <ellipse cx="925.97" cy="932.9" rx="840.08" ry="144.05" fill="#55198b" opacity="0.1" style="isolation: isolate"/>
    <path d="M1651.48,236.28c53.43,91.84,130.6,83.39,195.19,153.09,78.5,84.71,104.68,248.46,50.4,328.86-93.55,138.57-384.85-31.56-887.26-27.94C484.4,694.07,116.92,884.83,63.15,779.75,25.4,706,211.93,614.08,206.68,389.37c-2.11-90-34.13-164.79,11.48-254.52,3.36-6.6,35.36-67.83,97.59-105.25C476.8-67.23,610.42,133.56,895.62,112c122-9.21,187.36-46.31,313.87-72.43,56.13-11.59,101.57-23.47,165.27-22.09C1435.53,18.82,1537.7,21,1596,87,1639.38,136.15,1611.43,167.42,1651.48,236.28Z" transform="translate(-58.1 -3.05)" fill="#55198b" opacity="0.1" style="isolation: isolate"/>
  </g>
  <g>
    <path d="M1820.9,948.71A3216,3216,0,0,0,144,936a881.32,881.32,0,0,1-.63-388.27q143.85-7.39,287.78-12.39,696.91-24.13,1395.82,8.33a618.39,618.39,0,0,1-6.06,405.09Z" transform="translate(-58.1 -3.05)" fill="#72707f"/>
    <path d="M147.08,547.66c-.38-3.88,374-73.59,826.18-76.2,468.36-2.7,854.11,67.56,853.7,72.16-.13,1.37-34.81-1.8-158.52-6.64,0,0-76-3-179-5.74-252.67-6.8-504.88-6.19-504.88-6.19s-273.45.66-559.94,10.47c-89.81,3.08-155.11,6.13-155.11,6.13C173.53,546.15,147.18,548.69,147.08,547.66Z" transform="translate(-58.1 -3.05)" fill="#565260"/>
  </g>
  <g>
    <path d="M788.14,793.33l-20.2,34.27,32.67,20.34q11.28-19.16,22.57-38.3Z" transform="translate(-58.1 -3.05)" fill="#ffb8b8"/>
    <path d="M725.41,754.8l18.84-16.6,35.25-57.7-79-2.42-14,34.51-9,39Z" transform="translate(-58.1 -3.05)" fill="#2f2e41"/>
    <path d="M663.4,382.66s70.06,19.56,87.21-11.74S774.92,459,774.92,459l8.58,125.22-12.87,68.48c-10.34,37.86-31.22,54.85-39.75,60.85-13.78,9.7-27.77,13.55-48.9,19.38a303.45,303.45,0,0,1-54.33,9.78,1315.33,1315.33,0,0,1,35.75-360Z" transform="translate(-58.1 -3.05)" fill="#55198b"/>
    <path d="M768.17,824.38l35.28,21.13c.1,1.91.19,3.82.29,5.73l52,31.08L857,896.71s-7.38,6.5-11.55,8.4c-6.48,2.95-12.18-2-28.2-12.76-14.88-10-22.49-15.06-30.85-18.43a71,71,0,0,0-26.3-5.2q-3.15-18.9-6.28-37.79Z" transform="translate(-58.1 -3.05)"/>
    <path d="M726.55,697.5s24.19,28,26.07,29,35.88-5.19,35.88-5.1,36.42-9.35,36.42-9.35l-19.47,47.87L775,807.52l44.8,19.76a307.2,307.2,0,0,1,23.68-27.34c9.69-9.93,17.33-16.42,22-20.44,26.66-23.06,47.89-45.6,55-53,22.22-23.12,29.62-35.32,44-50a93.94,93.94,0,0,0,10-12,78.5,78.5,0,0,0,9-16c2-5,5.32-15.8,3-31l-24-19-40,4-20-1-110.28,9.06Z" transform="translate(-58.1 -3.05)" fill="#2f2e41"/>
    <path d="M546.5,802.5l-11,8.12a20.44,20.44,0,0,0-7,20.19c2,8.19,8.83,12.05,10,12.69a202,202,0,0,1,25,79L596,927.83,613.5,903.5l-13-18-.14-22.5L581.5,813.5l-16-11Z" transform="translate(-58.1 -3.05)"/>
    <path d="M593.5,805.5a1.47,1.47,0,0,0-.39-1.17c-.54-.4-1.56,0-2.41.5l-17.78,2.56q-.34,3.48-.68,7,2.63,16.7,5.26,33.37l16,12.69,22,11.1,21,4c3.7-27.69-2.46-39.43-9-45S593.45,808.3,593.5,805.5Z" transform="translate(-58.1 -3.05)" fill="#2f2e41"/>
    <path d="M564.6,803.65l11.37,44,9.34,6.45q-5.44-24.1-10.87-48.2Z" transform="translate(-58.1 -3.05)" fill="#ffb8b8"/>
    <path d="M577.5,697.5c-5.18,14.4-11.43,38.23-7.45,66.6,2.11,15.1,6.48,26.89,11.1,37.45,22.44,51.22,65.18,105.89,81.35,126l58,34a65.75,65.75,0,0,0,40-9,64.91,64.91,0,0,0,23-24c-4.47-40.69-16.28-96.21-48-154a399.6,399.6,0,0,0-31-48,178.45,178.45,0,0,1-22.33,1.58C636.8,728.46,600.34,711.45,577.5,697.5Z" transform="translate(-58.1 -3.05)" fill="#2f2e41"/>
    <path d="M792.43,522.26s5.24,3,7,4c0,0,5.34,3.22,9.15,5.92,5.77,4.08,13.83,19.28,20.85,40.08l6,6,16.31,5.88L872,594q5.21,8.61,10.42,17.22l-7,43-37,17.9V625.05a27.75,27.75,0,0,0-11.25-14.88,26.5,26.5,0,0,0-10.58-3.85,61,61,0,0,0-26.17-22.06,57.26,57.26,0,0,0-14-4q1.76-20.76,3.53-41.5Z" transform="translate(-58.1 -3.05)" fill="#ffb8b8"/>
    <path d="M737.22,395.55q.15,7,.28,13.95l9,52.18c-7.37,16.14-17,43.83-14,77.82a145.84,145.84,0,0,0,5,27q-1,15-2,30l-9,63Q725,680.74,723.6,702L709.29,731.1,748.46,710l31-29.51c1.07-4.41,2.57-11,4-19a333,333,0,0,0,5-52.12,700.15,700.15,0,0,1,6-70.67q6.18-39.19,12.37-78.41L796.5,413.5l-6-18q-8.81-8.82-19-18c-6.34-5.68-12.58-10.95-18.65-15.84q-4.17,8.93-8.35,17.84Z" transform="translate(-58.1 -3.05)" fill="#2f2e41"/>
    <path d="M710.3,473.31,738,464,884.5,466.5a88.14,88.14,0,0,1,27.45-10c8.45-1.54,10.35.07,26.51-.78,15.51-.8,16.14-2.15,25.87-2,12.43.21,29,2.69,29.25,6.45.19,2.86-9.15,5.85-18.4,8.81a131.44,131.44,0,0,1-16.36,4.09L975.5,485.5a64.94,64.94,0,0,0,53.82,3.2,5.67,5.67,0,0,1,5.18,9.8c-5.09,1.21-11.52,2.62-19,4q-9.87,1.81-19,3l-47,2a89.8,89.8,0,0,1-45-12l-62.38,13c-31.93,6.65-41.66,9.41-58.14,11.74a372.54,372.54,0,0,1-62.26,3.5L698.5,513.5l-12-19,18-25Z" transform="translate(-58.1 -3.05)" fill="#ffb8b8"/>
    <path d="M701.67,345.83c-.24-2.63-.49-5.27-.73-7.9-29.14,3.29-48.21,14.07-60.29,23.27-3.76,2.85-12.91,10.33-31.3,25.15-10.18,8.07-18.56,14.71-24.19,19.15a364.31,364.31,0,0,0-7.08,66.85c-.3,27.81,3,40,2.88,68.2a362.75,362.75,0,0,1-7,69q-9.57,33.54-19.31,66.75c3.41,11.65,10.2,28.13,24.54,36.82,16,9.77,29.4,2.58,51.3,6.46,12.93,2.31,31.74,9.11,53.47,30.78A150.52,150.52,0,0,1,681,697.92c2.1-16.88,5.34-18.12,10.31-44.36,5.47-29.35,8.18-44.08,5.26-58.48a210.77,210.77,0,0,1-3.89-32.54c-.39-7.45-.37-13.64-.29-17.81a37.37,37.37,0,0,1,.88-7.79s.35-1.54.78-2.85c1.82-5.62,7.71-10.45,9-11.49a43.25,43.25,0,0,1-1.12-11.75c.34-8.29,3-14.26,5.43-20,2.86-6.78,6.85-16.6,11.84-29.95Q709,450.23,698.91,439.72l.14-28.5Z" transform="translate(-58.1 -3.05)" fill="#2f2e41"/>
    <path d="M699.5,318.5a75.12,75.12,0,0,1-9,23,26.7,26.7,0,0,1-13,8,132,132,0,0,0,9,30c6.87,15.78,12.47,28.7,25,33,3.09,1.06,12.34,3.57,26-3a134.73,134.73,0,0,1,4-19,145.1,145.1,0,0,1,7-19,200.9,200.9,0,0,1,13-25l-34-29Z" transform="translate(-58.1 -3.05)" fill="#ffb8b8"/>
    <circle cx="717.9" cy="283.95" r="82.5" fill="#ffb8b8"/>
    <path d="M474.12,747.29a1.5,1.5,0,0,0,0-3,1.5,1.5,0,0,0,0,3Z" transform="translate(-58.1 -3.05)" fill="#2f2e41"/>
    <path d="M1277.61,887.71l-259.5-33.12,107.68-40.39,239.26,28Z" transform="translate(-58.1 -3.05)" fill="#565260"/>
  </g>
  <g>
    <path d="M820.11,431.21" transform="translate(-58.1 -3.05)"/>
    <path d="M815.05,421.3" transform="translate(-58.1 -3.05)"/>
    <path d="M763.79,321.32c-.53-.58-.74-1.89-1.66-2.92-1.39-1.53-.08-5.16.1-7.83.22-3.24-.45-5.63-3.83-6.28-.7-.14.13.15-.51-.18-2-1-5.17-1.66-4.6-4.6.54-2.74,3.78-1.64,6.26-2.7a23.91,23.91,0,0,1-11.73-8.2c-4.11-5-12-4.13-15.85,1.64A23.25,23.25,0,0,0,728.25,306c1.1,9.47,5,13.25,3.15,15.88-.95,1.39-2.41.84-6.42,1.84a35.69,35.69,0,0,0-10.35,4.79c-7.81,5.51-5.71,13.25-12.09,17.35-5.84,3.79-14.28,1.61-15.15-1.92-.75-3,4.36-5.61,8.35-14.41a41.17,41.17,0,0,0,3.24-11q-11.12,6.35-22.16,12.82c1-2.56,1.83-5.71.6-7.89-.22-.39-.5-.56-.61-.83-1.72-4.25-4.81-7.62-4.78-13.41,0-7.24,4.86-8.81,8.4-12.81-3.81.28-6.87-3.33-10.82-1.06-.59.34-2-.79-2.86-1.44-5.53-4.08-9.2-9.95-9.37-17.35-.13-5.81-4.87-22,2.92-28.79a12.44,12.44,0,0,1,8.2-2.77c5.27-3.54,10.58-4.81,16.46-3.65,7.78.5,10.07,2.36,10.63,4.07.33,1,.52,3,1.73,3.84a2.09,2.09,0,0,0,1.55.22c2.41-.41,1.85-3.09,2.38-4.84,4.58-15,11.23-28.63,22.74-38.77,15.13-12.94,33.44-14.24,52.21-11.85,25.37,3.18,47.56,13.31,65.95,30,5.34,4.79,10,10.1,11.67,17,1,4.37,1.82,9-2.54,12.77-3.21-.52-4.23-3.62-6.77-4.89-16,.05-23.17-1.23-26.64-2.61a34.79,34.79,0,0,1-5.8-1.8c-6.24-2.71-13.06-.65-17.09,5.14a6,6,0,0,0-.83,2.39c-1.17,5.17-.44,11.08.37,15.18l.14.16a26.54,26.54,0,0,0,3.37,2.88c.65.91-3.1,5.62-19.71,20.92" transform="translate(-58.1 -3.05)"/>
  </g>
  <g>
    <path d="M1319.18,736.7c26.59,18.43,60.59,20.36,86.73,4.91,29.77-17.59,35.91-49.78,36.77-54.76" transform="translate(-58.1 -3.05)" fill="none" stroke="#2f2e41" stroke-miterlimit="10" stroke-width="3"/>
    <path d="M1269.09,435.66c37.79-31.13,88.21-19.87,104.25,8.44,12.41,21.88,5.56,56.25-19.91,79.5" transform="translate(-58.1 -3.05)" fill="none" stroke="#2f2e41" stroke-miterlimit="10" stroke-width="3"/>
    <path d="M1101.28,436.64c2.91,4.87,9.91,14.84,22.41,19.33,18.7,6.73,42-1.54,57.27-21.26" transform="translate(-58.1 -3.05)" fill="none" stroke="#2f2e41" stroke-miterlimit="10" stroke-width="3"/>
    <path d="M1252.34,800.75l-32.12-2.06-1,67.71,33-17.95Q1252.26,824.6,1252.34,800.75Z" transform="translate(-58.1 -3.05)" fill="#f56a25"/>
    <path d="M1072,425l0-.05c.52-.72,1-1.45,1.54-2.17l0,0,0,0,19.7-27.73.09-.13c.08-.12.17-.23.25-.34l0,0,.07-.1-.43.6.09-.13a4.6,4.6,0,0,0,.32-.45l0,0a13.45,13.45,0,0,0,2.3-7.56,13,13,0,0,0-12.85-13.24,12.53,12.53,0,0,0-8.89,3.7,12.11,12.11,0,0,0-1,1.12l0,.05,1.06-1.17-1,1.12,0,.05q-10.31,11.37-20.59,22.76" transform="translate(-58.1 -3.05)" fill="#72707f"/>
    <path d="M1100.1,426.72,1069.79,423q3.81-9.93,7.61-19.86l29.41,4.48Z" transform="translate(-58.1 -3.05)" fill="#ff9934"/>
    <path d="M1106.81,407.61l-29.41-4.48,14.13-14.1,23.5,3.8Z" transform="translate(-58.1 -3.05)" fill="#f56a25"/>
    <path d="M1231.39,442.56c9.13,3.21,18.68,6.9,28.55,11.17a436.86,436.86,0,0,1,43.49,21.74,48,48,0,0,0,11.36-5.09c4.54-2.8,12.44-7.67,15.7-17a26.75,26.75,0,0,0,1.37-10.48l-94.66-23.36" transform="translate(-58.1 -3.05)" fill="#ff9934"/>
    <path d="M1381.58,545l69.72,129.63a26,26,0,0,1-39.89,23.72l-76.94-124" transform="translate(-58.1 -3.05)" fill="#ff9934"/>
    <path d="M1014.44,418.45l-16-20.58,7.91,3.15,11,12.8,15.25,5.55,22.83-1.49a2.23,2.23,0,0,1,1.32.5,2.9,2.9,0,0,1,.45,3.36L1032,422.86Z" transform="translate(-58.1 -3.05)" fill="#ba4b00"/>
    <path d="M1010.79,423.53l-15.36-16.75,3.42-8.88,15.59,20.55,17.56,4.41,25.15-1.12c1.08,2.49,2.16,5,3.25,7.48l-27.21,1Z" transform="translate(-58.1 -3.05)" fill="#ff9934"/>
    <path d="M1120.21,438.2l7-8.08,9-10.45h0a19.28,19.28,0,0,0,6.19-14.28c0-10.42-8-18.87-17.86-18.87a17,17,0,0,0-7.35,1.67h0l0,0h0l-5.15,3.74h0l0,0q-7.34,5.32-14.67,10.65l0,0" transform="translate(-58.1 -3.05)" fill="#72707f"/>
    <path d="M1112,392l0,0h0" transform="translate(-58.1 -3.05)" fill="none" stroke="#000" stroke-miterlimit="10"/>
    <ellipse cx="1050.57" cy="417.42" rx="20.76" ry="21.33" fill="#565260"/>
    <path d="M1250.5,807.5l-3,46-36,23q.65-39.54,1.3-79.11Z" transform="translate(-58.1 -3.05)" fill="none"/>
    <path d="M1220.22,798.69l-1,67.71L1161.42,858q-.17-31.08-.34-62.17Z" transform="translate(-58.1 -3.05)" fill="#ff9934"/>
    <path d="M1396.38,686.42a167.29,167.29,0,0,0,19.12-9.12c7.83-4.37,10.53-6.73,16-7.13,7-.5,9.12,2.87,13.48,1.38,6.36-2.19,9.11-11.91,9.51-18,1.24-19-18.3-32.33-24-33a24.91,24.91,0,0,0-9,.59c-.33.07-.66.16-1,.26l-.12,0-.33.09,1.43-.39a3,3,0,0,0-1.1.3c-1.44.73-1.69,2.46-2.23,3.62-.79,1.74-2.34,2.5-5,3.81-2.21,1.08-4.84,1.83-10.51,2.14-9.66.52-14-1-22.15,1.13l-.78.21Z" transform="translate(-58.1 -3.05)" fill="#72707f"/>
    <path d="M1178.5,772.5l1.34-.65.12-.06,39.54-19.29,0,0a26.17,26.17,0,0,1,11-2c17.21.55,29.27,17.86,29,34-.21,12.24-7.52,24.45-18,30-.46.24-.92.47-1.39.68l-.07,0,1.46-.71,0,0-41,20,0-.08" transform="translate(-58.1 -3.05)" fill="#72707f"/>
    <path d="M1220.5,803.5c-.28,16.51-13.47,33-30,33-17.94,0-31.76-19.22-30-37,1.49-15.07,14.34-30.53,31-30C1208.71,770.05,1220.77,787.36,1220.5,803.5Z" transform="translate(-58.1 -3.05)" fill="#565260"/>
    <path d="M1075.87,414.08a17.07,17.07,0,0,1-2.29,8.61l0,0,0,0A14.43,14.43,0,0,1,1072,425l0,.05a14,14,0,0,1-10.67,5.09c-8,0-14.59-7.17-14.59-16a16.55,16.55,0,0,1,5.93-12.89,13.66,13.66,0,0,1,8.66-3.13C1069.34,398.06,1075.87,405.23,1075.87,414.08Z" transform="translate(-58.1 -3.05)" fill="#565260"/>
    <g>
      <path d="M1012.86,410.58l-.33-.15a20.78,20.78,0,0,0-4.37-2.19c-3.44-1.63-6.92-3.19-10.38-4.78l-13.59-6.24a2.88,2.88,0,0,1-1.72-1.89c-.81-1.92-1.24-3.95-1.9-5.91-1.1-3.31-2.31-6.57-3.39-9.88-1.69-5.16-3.33-10.33-4.78-15.57-1.4-3-.44-5.39,1.77-7.64,7.15-7.31,14.44-14.47,22-21.34,3.94-3.57,7.7-7.33,11.65-10.88a3.37,3.37,0,0,1,2.27-1.24l47.17,21.66a3.15,3.15,0,0,1,.31,2.72c-.74,4.24-1.37,8.5-2.41,12.69-.48,2-.39,4.11-.84,6.13-1,4.57-1.44,9.27-2.73,13.8l-.74,1.61c-3.49,6.22-7.37,12.19-11.3,18.12-3.52,5.31-6.71,10.83-10.38,16-.54.76-1,1.69-2.24,1.21-4.15-1.9-8.28-3.81-12.43-5.69C1014,410.91,1013.5,410.5,1012.86,410.58Z" transform="translate(-58.1 -3.05)"/>
      <path d="M997.82,403.29q7.08,3.22,14.15,6.48c.28.13.75.12.56.66l-14.86-6.82C997.58,403.43,997.62,403.33,997.82,403.29Z" transform="translate(-58.1 -3.05)" fill="#707070"/>
      <path d="M997.82,403.29l-.15.32-14.21-6.53a1.15,1.15,0,0,0,.11-.31Z" transform="translate(-58.1 -3.05)" fill="#707070"/>
      <path d="M1027.24,416.86a.25.25,0,0,1-.17.25l-14.21-6.53c.22-.37.49-.16.74-.05Z" transform="translate(-58.1 -3.05)" fill="#707070"/>
      <path d="M991.42,367.9l10.3-11.14c1.9-2.05,1.9-2.05,4.5-.86,4.25,2,8.48,3.94,12.75,5.83,1.13.5,1.45.86.55,1.93-3.19,3.78-6.3,7.63-9.43,11.46-.42.51-.74,1-1.58.64C1002.89,373.15,997.24,370.57,991.42,367.9Z" transform="translate(-58.1 -3.05)" fill="#fefefe"/>
      <path d="M973,359.41c2.95-3,5.72-5.85,8.57-8.64,1.42-1.39,2.55-3.72,4.36-3.89s3.56,1.33,5.33,2.13c3.28,1.49,6.54,3.06,9.85,4.49,1.1.48,1.15.87.36,1.71q-5.28,5.58-10.49,11.23c-.5.55-.91.82-1.66.48C983.91,364.44,978.54,362,973,359.41Z" transform="translate(-58.1 -3.05)" fill="#fe7800"/>
      <path d="M1019.32,380.7c-2.48-1.14-4.93-2.32-7.43-3.39-1.09-.46-1.16-1-.46-1.8,3.19-3.86,6.4-7.71,9.54-11.61.65-.81,1.18-.7,2-.34,4.61,2.14,9.22,4.28,13.86,6.35,1.07.48,1.16,1,.53,1.83-2.92,4.06-5.85,8.13-8.75,12.21-.53.75-1.06.51-1.68.23C1024.37,383,1021.84,381.85,1019.32,380.7Z" transform="translate(-58.1 -3.05)" fill="#036eb6"/>
      <path d="M1013,357.45c-2.31-1.07-4.6-2.16-6.94-3.17-1-.43-1.33-.82-.47-1.74q4.44-4.69,8.8-9.44a1.54,1.54,0,0,1,2-.39c4.45,2.07,8.91,4.13,13.38,6.14,1.08.48.93,1,.34,1.74q-4,4.92-8.05,9.86a1.32,1.32,0,0,1-1.85.34C1017.85,359.64,1015.42,358.56,1013,357.45Z" transform="translate(-58.1 -3.05)" fill="#e51f19"/>
      <path d="M995.14,349.24c-2.37-1.08-4.72-2.2-7.1-3.24-.94-.41-1-.78-.27-1.47,3.34-3.07,6.68-6.14,10-9.25a1.5,1.5,0,0,1,1.91-.25c4.35,2,8.7,4,13.07,6,1.06.48,1,.94.28,1.67-3,3.12-5.91,6.25-8.81,9.43a1.43,1.43,0,0,1-2,.4C999.88,351.39,997.5,350.33,995.14,349.24Z" transform="translate(-58.1 -3.05)" fill="#fee000"/>
      <path d="M1030.74,365.59c-2.32-1.06-4.63-2.14-7-3.18-.83-.37-1.1-.68-.39-1.52,2.73-3.26,5.4-6.56,8.05-9.88a1.5,1.5,0,0,1,2.13-.48q6.36,3,12.76,5.86c1.11.5,1.23,1.11.55,2-2.28,3.15-4.61,6.28-6.8,9.49-.86,1.27-1.64,1.33-2.91.67C1035.08,367.49,1032.89,366.58,1030.74,365.59Z" transform="translate(-58.1 -3.05)" fill="#00903a"/>
      <path d="M1023.93,344.81c-2.1-1-4.19-2-6.31-2.88-1-.46-1.43-.89-.48-1.88,2.57-2.69,5.1-5.42,7.63-8.15a1.65,1.65,0,0,1,2.19-.44c4.08,1.91,8.17,3.77,12.27,5.64,1,.45,1.22.89.42,1.84-2.33,2.75-4.56,5.57-6.82,8.38a1.63,1.63,0,0,1-2.29.54C1028.36,346.79,1026.13,345.82,1023.93,344.81Z" transform="translate(-58.1 -3.05)" fill="#00903a"/>
      <path d="M1040.86,352.55c-2.09-1-4.18-1.94-6.28-2.87-1-.46-1.4-.85-.49-1.9,2.31-2.68,4.51-5.45,6.7-8.22a1.69,1.69,0,0,1,2.4-.62c3.89,1.86,7.81,3.65,11.75,5.41,1.21.53,1.3,1,.51,2.09-2,2.67-4,5.36-5.88,8.17-.83,1.27-1.57,1.29-2.76.69C1044.86,354.33,1042.85,353.46,1040.86,352.55Z" transform="translate(-58.1 -3.05)" fill="#e51f19"/>
      <path d="M1007.18,337.07c-2.15-1-4.29-2-6.45-2.95-.9-.4-1.05-.72-.24-1.46,2.93-2.64,5.81-5.33,8.67-8.05a1.6,1.6,0,0,1,2.05-.31q6,2.79,11.93,5.48c.94.42,1.16.73.33,1.59q-3.93,4-7.69,8.27a1.56,1.56,0,0,1-2.16.4C1011.49,339,1009.33,338.06,1007.18,337.07Z" transform="translate(-58.1 -3.05)" fill="#fefefe"/>
      <path d="M991.18,369.34c5.88,2.7,11.35,5.22,16.83,7.72a1.36,1.36,0,0,1,.89,1.2c.39,3.58.8,7.15,1.19,10.71-.62.36-1-.08-1.37-.25-4.48-2-8.94-4.1-13.41-6.14-.65-.3-1.27-.54-1.45-1.39C993,377.38,992.15,373.59,991.18,369.34Z" transform="translate(-58.1 -3.05)" fill="#fe7800"/>
      <path d="M1027.3,397.26c-5.19-2.38-10.16-4.67-15.15-6.94a1.22,1.22,0,0,1-.7-1.13c-.39-3.56-.78-7.13-1.16-10.63.55-.43.88,0,1.21.13q7.35,3.35,14.69,6.72c.63.29,1.34.46,1.32,1.42C1027.42,390.23,1027.37,393.62,1027.3,397.26Z" transform="translate(-58.1 -3.05)" fill="#fefefe"/>
      <path d="M992.54,381.31l-5.63-2.59a50.31,50.31,0,0,0-6.15-2.76c-3.18-1-4.76-3-5.4-6.16-.59-2.86-1.57-5.64-2.49-8.87l7.1,3.26c2.69,1.24,5.35,2.52,8.07,3.68a3,3,0,0,1,2,2.39C990.77,373.82,991.64,377.35,992.54,381.31Z" transform="translate(-58.1 -3.05)" fill="#00903a"/>
      <path d="M994.41,383.74c5.2,2.39,10,4.62,14.87,6.81a1.63,1.63,0,0,1,1.12,1.42c.23,2.35.47,4.69.77,7,.14,1.05-.2,1.1-1,.72q-6.28-2.93-12.57-5.78a1.75,1.75,0,0,1-1.13-1.26C995.81,389.82,995.15,387,994.41,383.74Z" transform="translate(-58.1 -3.05)" fill="#fefefe"/>
      <path d="M977.24,375.85l15,6.91a1.45,1.45,0,0,1,.79,1.1c.64,2.81,1.27,5.62,1.9,8.41-.59.43-1,0-1.35-.19q-5.73-2.59-11.44-5.23c-.69-.32-1.37-.6-1.66-1.46C979.53,382.37,978.46,379.37,977.24,375.85Z" transform="translate(-58.1 -3.05)" fill="#e51f19"/>
      <path d="M1019.64,395.32c2.09,1,4.17,2,6.29,2.86a1.79,1.79,0,0,1,1.31,2c-.12,1.94-.14,3.89-.12,5.83,0,1-.21,1.42-1.3.9-4-1.88-8-3.72-12.08-5.55a1.76,1.76,0,0,1-1.16-1.6c-.21-2.23-.43-4.46-.75-6.68-.19-1.35.3-1.22,1.21-.78C1015.23,393.32,1017.44,394.31,1019.64,395.32Z" transform="translate(-58.1 -3.05)" fill="#e51f19"/>
      <path d="M996.94,395.1c4,1.83,7.42,3.67,11,5,2.82,1,4.08,2.66,3.92,5.57,0,1,.76,2.45,0,3s-1.88-.56-2.82-1c-3-1.34-6-2.75-9-4.11a2.18,2.18,0,0,1-1.51-1.57C998.07,399.87,997.55,397.76,996.94,395.1Z" transform="translate(-58.1 -3.05)" fill="#00903a"/>
      <path d="M1012.86,402.44c4.67,2.14,9,4.14,13.34,6.11a1.33,1.33,0,0,1,.83,1.4c0,1.87-.08,3.75-.13,6l-3.62-1.66c-2.79-1.28-5.58-2.57-8.37-3.84-.65-.3-1.26-.55-1.34-1.44C1013.39,406.93,1013.13,404.89,1012.86,402.44Z" transform="translate(-58.1 -3.05)" fill="#fde000"/>
      <path d="M997.26,402.29c-4.43-2-8.45-3.88-12.45-5.74a1.48,1.48,0,0,1-.69-.75c-.89-2.43-1.73-4.88-2.64-7.47a4.82,4.82,0,0,1,2.31.76q5.1,2.31,10.17,4.66c.58.27,1.3.42,1.49,1.15C996,397.23,996.6,399.56,997.26,402.29Z" transform="translate(-58.1 -3.05)" fill="#036db6"/>
      <path d="M1028.66,395.47c.08-3.14.14-6.28.24-9.42a1.94,1.94,0,0,1,.43-1c2.88-4,5.77-8,9-11.95-.26,3.31-.51,6.62-.78,9.94a1,1,0,0,1-.23.47q-4.14,6-8.31,12Z" transform="translate(-58.1 -3.05)" fill="#e51f19"/>
      <path d="M1039.12,380.28a89.08,89.08,0,0,1,.81-9.56c.33-1.79,2-3.13,3.11-4.66a67.5,67.5,0,0,1,4.64-6.05c-.38,3.19-.6,6.4-1.2,9.54-.43,2.24-2.31,3.79-3.49,5.68s-2.33,3.4-3.5,5.1Z" transform="translate(-58.1 -3.05)" fill="#fd7700"/>
      <path d="M1037,386.32c.19,4.15.1,8-2.81,11.39-2.06,2.38-3.56,5.25-5.49,7.84,0-3.27-.84-6.55,1.52-9.55S1034.74,389.56,1037,386.32Z" transform="translate(-58.1 -3.05)" fill="#00903a"/>
      <path d="M1055.93,348c-.35,7.51-2.4,14-7.75,19.2.35-3.05.7-6.14,1.07-9.22a4.1,4.1,0,0,1,.87-1.92Z" transform="translate(-58.1 -3.05)" fill="#fdfdfd"/>
      <path d="M1045.68,373.63c1.17,7.27-3.59,11.92-7.17,17.11.45-3-.57-6.15,1.57-8.95C1042.07,379.21,1043.79,376.41,1045.68,373.63Z" transform="translate(-58.1 -3.05)" fill="#036db6"/>
      <path d="M1028.37,414.56c-.11-3.39-.23-6.12,1.8-8.66,2.26-2.83,4.08-6,6.27-9.29.19,3.65-.38,6.62-2.51,9.35C1032,408.5,1030.41,411.36,1028.37,414.56Z" transform="translate(-58.1 -3.05)" fill="#fc7700"/>
      <path d="M1053.34,362.65c.05,6-2.31,10.86-6.17,15.16C1046.26,371.48,1050.09,367.18,1053.34,362.65Z" transform="translate(-58.1 -3.05)" fill="#fcdf00"/>
      <path d="M1038,399.53c-1.22-4.83,1.77-7.89,4-11.26a32.87,32.87,0,0,1,2.6-3.52c-.41,2.37.09,4.83-1.52,7C1041.26,394.22,1039.74,396.87,1038,399.53Z" transform="translate(-58.1 -3.05)" fill="#fbde00"/>
      <path d="M1051.38,374.41c0,4.19-.87,6.33-5.33,12.77C1045.31,383.92,1047.68,378.24,1051.38,374.41Z" transform="translate(-58.1 -3.05)" fill="#e21f19"/>
    </g>
    <ellipse cx="1234.92" cy="431.25" rx="12.57" ry="5.16" transform="translate(487.28 1539.75) rotate(-77.44)" fill="#f56a25"/>
    <path d="M1381.69,545.09c-1.11-1.89-15.52,3.85-27.51,11.53-10.21,6.55-20.84,15.9-19.71,17.67s15.59-4.86,26.56-11.78C1370.68,556.43,1382.81,547,1381.69,545.09Z" transform="translate(-58.1 -3.05)" fill="#d6541a"/>
    <path d="M1050,347.72l-34.49,4.45,7.86-6.21,30.84-3.56L1075,354.22q1.24,4.57,2.84,9.47c1.15,3.51,2.35,6.85,3.57,10a6.38,6.38,0,0,1-2.22,1.32,6.3,6.3,0,0,1-2.43.33c-1.33-2.77-2.85-5.69-4.57-8.7-1.56-2.71-3.13-5.24-4.68-7.58l-8.7-5.64Z" transform="translate(-58.1 -3.05)" fill="#f56a25"/>
    <path d="M1045.33,358.4l-25.73,3.23c-.69-1.38-1.38-2.85-2.05-4.39-.76-1.74-1.44-3.44-2-5.07l34.49-4.45,9.15,5.94,8.33,5.4c1.67,2.49,3.36,5.21,5,8.17,1.59,2.81,3,5.53,4.21,8.11-1.67,1.49-3.41,3.14-5.18,5s-3.43,3.65-4.9,5.39L1064,368.37l0,.05Z" transform="translate(-58.1 -3.05)" fill="#ff9934"/>
    <path d="M1211.51,876.5l-.15,8.88" transform="translate(-58.1 -3.05)" fill="none"/>
    <path d="M1213,788.94c0,2.82-.09,5.63-.14,8.45" transform="translate(-58.1 -3.05)" fill="none"/>
    <path d="M1398.9,677.76,1239.82,810.85l-6.75,5.64a36.12,36.12,0,0,0-1.53-36.31c-9.41-14.58-25.61-16.21-29.61-16.38l-.84,0,.84-.53,5.22-3.3,168.7-106.57Z" transform="translate(-58.1 -3.05)" fill="#ff9934"/>
    <path d="M1413.5,664.5c-2,12.72-13.16,23.84-27,24-15.12.18-27.3-12.8-28-27-.82-16.67,14.34-31.93,31-30C1405,633.29,1415.93,649.24,1413.5,664.5Z" transform="translate(-58.1 -3.05)" fill="#565260"/>
    <path d="M1303.79,504.29a168.13,168.13,0,0,0,19.12-9.12c7.82-4.37,10.53-6.74,16-7.13,7-.51,9.12,2.87,13.47,1.37,6.36-2.19,9.12-11.9,9.52-18,1.23-19-18.3-32.33-24-33a24.91,24.91,0,0,0-9,.59c-.33.07-.66.16-1,.26l-.12,0-.33.09,1.43-.39a2.76,2.76,0,0,0-1.1.3c-1.45.72-1.7,2.46-2.23,3.62-.79,1.73-2.35,2.49-5,3.81-2.21,1.08-4.85,1.83-10.52,2.13-9.65.52-14-1-22.14,1.14l-.78.21" transform="translate(-58.1 -3.05)" fill="#72707f"/>
    <path d="M1320.91,482.37c-2,12.71-13.16,23.84-27,24-15.12.17-27.31-12.8-28-27-.82-16.67,14.34-31.93,31-30C1312.38,451.16,1323.33,467.11,1320.91,482.37Z" transform="translate(-58.1 -3.05)" fill="#565260"/>
    <line x1="1265.98" y1="444.34" x2="1265.98" y2="444.33" fill="none" stroke="#000" stroke-miterlimit="10"/>
    <path d="M1352.55,564q-15.45-38-30.89-76a29.78,29.78,0,0,0,31.26-18.25q8.88,42.08,17.77,84.15c-2.84,1.33-5.82,2.83-8.9,4.53C1358.45,560.27,1355.38,562.14,1352.55,564Z" transform="translate(-58.1 -3.05)" fill="#ff9934"/>
    <path d="M1196.14,411.42q-14.82-2.69-29.75-5.49-19.48-3.66-38.69-7.41a19.58,19.58,0,0,1,7.12,12.4c1.24,9.19-5,15.52-5.68,16.24l62.15,16.23" transform="translate(-58.1 -3.05)" fill="#ff9934"/>
    <ellipse cx="1193.71" cy="427.41" rx="16.17" ry="5.16" transform="translate(533.87 1540.39) rotate(-81.37)" fill="#f56a25"/>
    <path d="M1233.24,438.2l-38.38-4.86a19.27,19.27,0,0,0,1.55-5.31,19,19,0,0,0-.43-7.34l39.74,4.75a19.07,19.07,0,0,0-2.48,12.76Z" transform="translate(-58.1 -3.05)" fill="#ff9934"/>
    <ellipse cx="1050.57" cy="417.42" rx="16.61" ry="17.07" fill="#72707f"/>
    <ellipse cx="1049.71" cy="418.13" rx="11.2" ry="11.51" fill="#f56a25"/>
    <path d="M1209.13,803.34c-.19,11.32-9.24,22.59-20.57,22.63-12.3,0-21.78-13.18-20.57-25.37,1-10.34,9.83-20.93,21.25-20.57C1201,780.41,1209.31,792.28,1209.13,803.34Z" transform="translate(-58.1 -3.05)" fill="#72707f"/>
    <path d="M1203.23,804.87c-.14,8.08-6.6,16.13-14.69,16.15-8.77,0-15.54-9.41-14.68-18.11.73-7.38,7-14.94,15.17-14.68C1197.46,788.49,1203.36,797,1203.23,804.87Z" transform="translate(-58.1 -3.05)" fill="#f66a24"/>
    <path d="M1072.8,414.08a13.51,13.51,0,0,1-1.82,6.82s0,0,0,0,0,0,0,0a11.62,11.62,0,0,1-1.22,1.72l0,0a11.1,11.1,0,0,1-8.45,4c-6.38,0-11.57-5.69-11.57-12.69a13.13,13.13,0,0,1,4.7-10.22,10.85,10.85,0,0,1,6.87-2.48C1067.62,401.38,1072.8,407.07,1072.8,414.08Z" transform="translate(-58.1 -3.05)" fill="#72707f"/>
    <path d="M1069.45,414.93a9.55,9.55,0,0,1-1.28,4.82l0,0s0,0,0,0a8.72,8.72,0,0,1-.87,1.22s0,0,0,0a7.85,7.85,0,0,1-6,2.85c-4.51,0-8.17-4-8.17-9a9.26,9.26,0,0,1,3.32-7.22,7.66,7.66,0,0,1,4.85-1.75C1065.79,406,1069.45,410,1069.45,414.93Z" transform="translate(-58.1 -3.05)" fill="#f56a25"/>
    <path d="M1018.11,854.59l259.5,33.12q-.73,35.55-1.48,71.1l-256-36.42Q1019.14,888.49,1018.11,854.59Z" transform="translate(-58.1 -3.05)" fill="#72707f"/>
    <path d="M1277.61,887.71l87.44-45.47v59.45l-88.92,57.12Q1276.88,923.26,1277.61,887.71Z" transform="translate(-58.1 -3.05)" fill="#72707f"/>
  </g>
  <g>
    <path d="M1245.67,794.27c.57-1.12,5.4-11,.4-21.25a24,24,0,0,0-21.34-13.26l116.09-77.94c7-6.1,16.77-5.24,21-.37,4.73,5.43,3.48,16.81-5.63,22.31Z" transform="translate(-58.1 -3.05)" fill="#feb171"/>
    <path d="M1418.07,625a7.74,7.74,0,0,1-1.37,2.57c-1,1.3-3.73,3.77-16.74,3.74a102,102,0,0,1-11.76-.69l-21.68-42.27c-3.6-6-2-13.48,2-16.28,4.39-3.12,12.37-1,15.32,6.56Q1401,601.84,1418.07,625Z" transform="translate(-58.1 -3.05)" fill="#feb171"/>
    <path d="M1448.35,676.79c.06.94.66,11.75-7.92,18.53a21.78,21.78,0,0,1-23.94,1.69q-3.39-8.31-6.77-16.64a53.36,53.36,0,0,0,5.78-3.07c3.16-1.93,6.26-4.29,10.18-5.85.61-.24,1.07-.4,1.39-.49a18,18,0,0,1,5.94-1,68,68,0,0,1,7.5,1.24Z" transform="translate(-58.1 -3.05)" fill="#feb171"/>
    <path d="M1239.82,810.85l-6.75,5.64a36.16,36.16,0,0,0-1.53-36.31c-10.39-16.12-29.08-16.44-30.38-16.44l.77-.49,5.22-3.3a41,41,0,0,1,9,2.19,44.07,44.07,0,0,1,19.74,14.92,37.87,37.87,0,0,1,3.94,33.79Z" transform="translate(-58.1 -3.05)" fill="#f66a24"/>
    <path d="M1334.47,574.29a103.1,103.1,0,0,0,47.33-28.92,34.06,34.06,0,0,1-2.89,7.8,37,37,0,0,1-13.15,14,47.26,47.26,0,0,1-31.29,7.14Z" transform="translate(-58.1 -3.05)" fill="#f66a24"/>
    <path d="M1358.73,664.35a12.32,12.32,0,0,0-1.36,4.47c-.55,5.57,3.17,9.84,5.53,12.55s8.37,9.64,16.71,9.07a15.59,15.59,0,0,0,6.45-1.94l-8.81-1.66a30.77,30.77,0,0,1-18.52-22.49Z" transform="translate(-58.1 -3.05)" fill="#f66a24"/>
    <path d="M1321.66,488a30.14,30.14,0,0,0,31.26-18.25c.43,2.06.87,4.12,1.3,6.17a33.26,33.26,0,0,1-31.11,15.66Z" transform="translate(-58.1 -3.05)" fill="#f66a24"/>
    <path d="M1278.58,454.28l-33.35-11.76A7.5,7.5,0,0,1,1251,428.7l73.46,15.72a34.92,34.92,0,0,1-8.77,3.81c-11.16,3.08-17.8-1.36-28.56,1.94A31.89,31.89,0,0,0,1278.58,454.28Z" transform="translate(-58.1 -3.05)" fill="#feb171"/>
    <path d="M1272.85,459.56l-4.43-2.06c8.54-8.1,15.61-10.06,20.58-10.31,2.57-.12,10.51-.07,15.44,0,5.11.08,8,.21,10.63-1.75a32.94,32.94,0,0,0,5.19-5.49h0l6.22,1.65a8.13,8.13,0,0,1-4.75,4.46c-4.1,1.65-6.15,2.47-8.33,2.89-6.79,1.31-14.7-.25-20,0C1288.51,449.14,1281.41,451.09,1272.85,459.56Z" transform="translate(-58.1 -3.05)" fill="#f66a24"/>
    <path d="M1176.06,430l-44.72-5.52a19,19,0,0,0,3.61-10,19.66,19.66,0,0,0-5.13-13.95L1178.34,416a7.12,7.12,0,0,1-2.28,14.05Z" transform="translate(-58.1 -3.05)" fill="#feb171"/>
    <path d="M1315.41,480.78c-1.62,10.16-10.52,19.05-21.57,19.18-12.09.14-21.82-10.23-22.38-21.58-.65-13.31,11.46-25.51,24.77-24C1308.6,455.84,1317.35,468.59,1315.41,480.78Z" transform="translate(-58.1 -3.05)" fill="#72707f"/>
    <path d="M1306.18,479.9c-.93,5.87-6.07,11-12.46,11.08-7,.08-12.61-5.91-12.93-12.46-.38-7.7,6.62-14.74,14.31-13.85C1302.25,465.49,1307.3,472.86,1306.18,479.9Z" transform="translate(-58.1 -3.05)" fill="#f56a25"/>
    <path d="M1403,663.12c-1.41,8.89-9.19,16.66-18.87,16.77C1373.56,680,1365,671,1364.55,661c-.57-11.65,10-22.31,21.67-21C1397,641.31,1404.69,652.45,1403,663.12Z" transform="translate(-58.1 -3.05)" fill="#72707f"/>
    <path d="M1395.92,662c-1,6.18-6.39,11.58-13.11,11.66-7.34.08-13.25-6.22-13.59-13.11-.4-8.1,7-15.5,15-14.57C1391.78,646.83,1397.1,654.57,1395.92,662Z" transform="translate(-58.1 -3.05)" fill="#f56a25"/>
    <path d="M1314.3,454.28a27.77,27.77,0,0,1,9.78,30.45,29.14,29.14,0,0,1,12-12.22,29.48,29.48,0,0,1,20.35-2.63,32.11,32.11,0,0,0-7.11-19.55,31.75,31.75,0,0,0-14.3-9.87,17.3,17.3,0,0,1-20.71,13.82Z" transform="translate(-58.1 -3.05)" fill="#a2a0a5"/>
    <path d="M1103.94,399.08a19.62,19.62,0,0,1,13.59-.14,16.76,16.76,0,0,1,5.34,3.24c3.81,3.45,4.93,7.79,5.38,7.63.61-.21-3.24-7.73-.55-11.29,1.77-2.33,5.91-2.37,10.17-1.67a19.49,19.49,0,0,0-11-8.21,18.5,18.5,0,0,0-8.13-.3q-2.58,2.21-5.55,4.44C1110,395.18,1106.89,397.27,1103.94,399.08Z" transform="translate(-58.1 -3.05)" fill="#a2a0a5"/>
    <path d="M1406.29,637.37A29.09,29.09,0,0,1,1417.54,670a45.83,45.83,0,0,1,33.7-11.44,36.11,36.11,0,0,0-21.27-34.6,21.73,21.73,0,0,1-6.41,8.79C1416.45,638.5,1408,637.59,1406.29,637.37Z" transform="translate(-58.1 -3.05)" fill="#a2a0a5"/>
    <path d="M1037.13,921.8l-9-1.81q.16-29.25.34-58.49l8.62,1Z" transform="translate(-58.1 -3.05)" fill="#ff9934"/>
    <path d="M1049.78,924l-9-1.81q.17-29.25.34-58.49l8.63,1Z" transform="translate(-58.1 -3.05)" fill="#ff9934"/>
    <path d="M1061.74,925.34l-9-1.81q.17-29.25.34-58.49l8.62,1Z" transform="translate(-58.1 -3.05)" fill="#ff9934"/>
    <path d="M1290.11,946.12l-6.83,5.69q-.18-28.37-.35-56.74l7.07-3.64Z" transform="translate(-58.1 -3.05)" fill="#ff9934"/>
    <path d="M1298.26,940.74l-6,4.59q-.13-27.5-.28-55l6.48-3.21Q1298.34,913.94,1298.26,940.74Z" transform="translate(-58.1 -3.05)" fill="#ff9934"/>
    <path d="M1304.92,937l-4.82,3.13q-.22-26.58-.46-53.16l5.43-2.37Z" transform="translate(-58.1 -3.05)" fill="#ff9934"/>
    <path d="M1264,923.68c-.82,12-10.45,24.29-19,23.69-10.23-.72-19-19.85-15-34.66,1.84-6.75,7.39-16.4,15-16.84C1254.74,895.3,1264.9,910.18,1264,923.68Z" transform="translate(-58.1 -3.05)" fill="#ff9934"/>
  </g>
  <g>
    <g>
      <g>
        <path d="M525.53,470.82l-8.2,5.45-17.14,11.41a4.44,4.44,0,0,0-.53-2.9,4.51,4.51,0,0,0-2.78-2.07L522,466l.23-.16.13.2Z" transform="translate(-58.1 -3.05)" fill="#ff9934"/>
        <path d="M496.88,482.71a.8.8,0,0,0,.31-.76.78.78,0,0,0-.29-.44L520,465.76l2,.25.36,0Z" transform="translate(-58.1 -3.05)" fill="#f56a25"/>
        <path d="M529.2,513.42l-1.88.18-10-37.33,8.2-5.45Q527.38,492.12,529.2,513.42Z" transform="translate(-58.1 -3.05)" fill="#ff9934"/>
      </g>
      <path d="M529.2,513.42l-1.88.18-10-37.33-17.14,11.41a4.44,4.44,0,0,0-.53-2.9,4.51,4.51,0,0,0-2.78-2.07.8.8,0,0,0,.31-.76.78.78,0,0,0-.29-.44L520,465.76l2,.25.23-.16.13.2,3.17,4.77Q527.38,492.12,529.2,513.42Z" transform="translate(-58.1 -3.05)" opacity="0.24"/>
      <g>
        <path d="M371.26,475.12l8.2,5.45L396.61,492a4.33,4.33,0,0,1,.52-2.89,4.51,4.51,0,0,1,2.78-2.07l-25.12-16.7-.23-.16-.13.2Z" transform="translate(-58.1 -3.05)" fill="#ff9934"/>
        <path d="M399.91,487a.78.78,0,0,1-.3-.76.7.7,0,0,1,.29-.44l-23.07-15.76-2,.26-.36,0Z" transform="translate(-58.1 -3.05)" fill="#f56a25"/>
        <path d="M367.59,517.71l1.88.19,10-37.33-8.2-5.45Q369.43,496.42,367.59,517.71Z" transform="translate(-58.1 -3.05)" fill="#ff9934"/>
      </g>
      <path d="M367.59,517.71l1.88.19,10-37.33L396.61,492a4.33,4.33,0,0,1,.52-2.89,4.51,4.51,0,0,1,2.78-2.07.78.78,0,0,1-.3-.76.7.7,0,0,1,.29-.44l-23.07-15.76-2,.26-.23-.16-.13.2-3.17,4.77Q369.43,496.42,367.59,517.71Z" transform="translate(-58.1 -3.05)" opacity="0.23"/>
      <circle cx="439.22" cy="486.19" r="8.35" fill="#2f2e41"/>
      <circle cx="341.27" cy="490.52" r="8.35" fill="#2f2e41"/>
      <path d="M505.38,455.46c-6,23.11-32.05,36.86-54.18,38.32-25.93,1.71-57.09-12.73-63.87-39.53-8.08-31.91,21.75-68.18,55.76-69.88C480.69,382.49,513.65,423.35,505.38,455.46Z" transform="translate(-58.1 -3.05)" fill="#ff9934"/>
      <path d="M496.88,493.09l-94.63.89,3.45-16,85.64-.62Q494.12,485.21,496.88,493.09Z" transform="translate(-58.1 -3.05)" fill="#565260"/>
      <circle cx="347.14" cy="493.6" r="8.35" fill="#939393"/>
      <circle cx="436.72" cy="491.77" r="8.35" fill="#939393"/>
      <path d="M433.09,444.24" transform="translate(-58.1 -3.05)" fill="#8e8e8e"/>
      <path d="M401.74,500.82,371.91,481l3.89-5.85L405.63,495a6.28,6.28,0,0,0-3.89,5.85Z" transform="translate(-58.1 -3.05)" fill="#ff9934"/>
      <path d="M405.59,494.94l-29.94-19.58,2.81-.34,27.16,18.54a.87.87,0,0,0-.33.5A1,1,0,0,0,405.59,494.94Z" transform="translate(-58.1 -3.05)" fill="#f56a25"/>
      <path d="M369.81,531.33l11.75-43.94L371.91,481l-4.32,50.13Z" transform="translate(-58.1 -3.05)" fill="#ff9934"/>
      <path d="M497.57,499.56l29.83-19.83-3.89-5.85-29.83,19.84a5.35,5.35,0,0,1,3.27,2.43A5.24,5.24,0,0,1,497.57,499.56Z" transform="translate(-58.1 -3.05)" fill="#ff9934"/>
      <path d="M493.68,493.72l30-19.61-2.82-.35L493.69,492.3a.86.86,0,0,1,.35.53A.94.94,0,0,1,493.68,493.72Z" transform="translate(-58.1 -3.05)" fill="#f56a25"/>
      <path d="M529.51,530.08l-11.76-43.94,9.65-6.41,4.32,50.13Z" transform="translate(-58.1 -3.05)" fill="#ff9934"/>
      <circle cx="388.22" cy="436.06" r="28.75" fill="#fff"/>
      <circle cx="388.22" cy="436.06" r="14.72" fill="#565260"/>
      <rect x="350.7" y="482.61" width="80.16" height="1.82" fill="#ff9934"/>
      <rect x="350.7" y="477.28" width="0.98" height="4.65" fill="#ff9934"/>
      <rect x="429.89" y="477.28" width="0.98" height="4.65" fill="#ff9934"/>
      <rect x="388.22" y="477.34" width="0.98" height="4.65" fill="#ff9934"/>
      <circle cx="366.44" cy="479.57" r="2.23" fill="#ff9934"/>
      <circle cx="414.81" cy="479.57" r="2.23" fill="#ff9934"/>
    </g>
    <g>
      <path d="M351.69,878.7l-.63,50.8,66.41,16.9-.16-66.49Z" transform="translate(-58.1 -3.05)" fill="#939393"/>
      <path d="M455.06,935.67l37.62,7.78L505.49,962l-1.87,27.32-5.89,7.44-65.88.57-25.12-.57q4.71-20.79,9.4-41.57L413,945.58A42,42,0,0,1,435.79,934,41.24,41.24,0,0,1,455.06,935.67Z" transform="translate(-58.1 -3.05)" fill="#020202"/>
      <path d="M293.94,970.45c1.8,7.43,4.73,14.33,9.87,20.12,3.9,4.41,8.65,7.3,14.62,7.88a3.36,3.36,0,0,0,1.54.12c16.14,0,24.33.17,44.75,0,8.09-.06,12.14-.1,14,0a224,224,0,0,0,22.77,0l.48,0a10.46,10.46,0,0,0,6.8-3.24,3.68,3.68,0,0,1,2.88-.95q10.55,0,21.09,0c.81,0,1.7.13,2.18-.79a2.72,2.72,0,0,0,2-2.6,2.92,2.92,0,0,0-1.51-2.8c-.27-.17-.69-.2-.7-.65-.45-.51-1.05-.32-1.6-.32h-16c-.39,0-.78,0-1.17,0-1.23-.06-1.42-.29-1.06-1.41s.56-2.1.89-3.13a23.56,23.56,0,0,0,.85-4.46c.15-1.17.75-1.53,1.83-1.53,2.91,0,5.81,0,8.72,0,2.38,0,4.77,0,7.15,0a11.63,11.63,0,0,0,1.33-.06,5.38,5.38,0,0,0,1.52-.38h0l.29-.14c1.71-.51,2.58-1.62,2.47-3.16s-1.25-2.62-3.26-2.87a1.48,1.48,0,0,0-1.07-.55,7.81,7.81,0,0,0-1,0c-5.2,0-10.4,0-15.6,0-2.12,0-2.08,0-2.42-2.09a34.44,34.44,0,0,0-1.26-5.83c-.44-1.26-.23-1.55,1.13-1.56,4.77,0,9.53,0,14.3,0,1,0,2.24.25,2.79-1.08,1.43-1.27,1.81-2.39,1.27-3.75s-1.59-1.93-3.35-2l-2.34-.07a6.33,6.33,0,0,0-3-.57c-4.86,0-9.72,0-14.58,0a4.15,4.15,0,0,1-3-1.17,23.68,23.68,0,0,0-6.64-4.2l5,0c3,0,6,0,9.07,0,.71,0,1-.56,1.57-.79a2.94,2.94,0,0,0,2.23-3.31,3,3,0,0,0-3.1-2.56c-3.67,0-7.76-.07-10.63,0-.77,0-1.4,0-1.77,0-7.87-.24-13.6-.46-15.36-.49a9.77,9.77,0,0,1-3.13-.49,8.75,8.75,0,0,1-1.24-.51c-2.13-1-4.32-2-6.07-2.81,7.35.52,12.7.35,13.48,0a7.86,7.86,0,0,0,1.13-.68,5.24,5.24,0,0,0,.74-.64,2.9,2.9,0,0,0,.87-3.51,2.86,2.86,0,0,0-.77-1.11,3.57,3.57,0,0,0-2.35-.77l-13.67-.22c-6.78.29-6.81-.35-12.77-.42a12.34,12.34,0,0,1-4.16-.73,13,13,0,0,1-1.44-.64c-2.34-1.23-4.79-2.24-7.06-3.25,4.83,0,9.83,0,14.82,0a2.61,2.61,0,0,0,2.59-1.58c1.66-2.86.33-5.17-3-5.19l-9.09,0a7.53,7.53,0,0,0-3.41-.59h-16a7.35,7.35,0,0,1-3.13-.68c-2-.88-3.95-1.78-5.72-2.58,4.93,0,10.08.06,15.22,0a1.94,1.94,0,0,0,2.14-1.8c1.35-2.61.09-4.78-2.82-4.78q-12.94,0-25.88,0c-2.08,0-3.09.89-3.34,3a1.18,1.18,0,0,1-.88,1.12c-6,2.08-10.15,6.27-13.5,11.45l-.65,1c-1.2.35-1.15,1.41-1.36,2.33-.55,1.21-1.15,2.4-1.67,3.63a59.85,59.85,0,0,0-4.27,17.63A70,70,0,0,0,293.94,970.45Z" transform="translate(-58.1 -3.05)" fill="#ff9934"/>
      <path d="M401.77,998.38a.73.73,0,0,0,.25.15,3.08,3.08,0,0,0,1.25,0q24.15,0,48.29,0H488.5a10.29,10.29,0,0,0,6.91-3.22,3.72,3.72,0,0,1,2.84-1c5.29,0,10.58,0,15.88,0a12.45,12.45,0,0,0,4.85-.57c.39,0,.78,0,1.17,0,1.18.08,2.33,0,2.7-1.38a2.53,2.53,0,0,0-1.29-3.08,9.21,9.21,0,0,1-2.52-2.81,4.61,4.61,0,0,0-6.35-1.57c-1.22.8-1.32,1.66-.31,2.72a1,1,0,0,0-1.61.13,1.84,1.84,0,0,1-1.59.68c-2.6,0-5.2,0-7.8,0-.9,0-1.16-.26-.79-1.16a30.94,30.94,0,0,0,2.09-8.42c.22-1.89.39-2,2.28-2,5.55,0,11.09,0,16.64,0,.71,0,1.51.18,2-.58a10.65,10.65,0,0,0,1.08-.38,1.92,1.92,0,0,0,1.3-2,2.31,2.31,0,0,0-1.83-2.32,4.26,4.26,0,0,0-2.61-.59H505.29c-2.11,0-2.17,0-2.46-2.09a39.5,39.5,0,0,0-1.66-7.6c-.38-1.08-.14-1.34,1.13-1.35,4.77,0,9.54,0,14.31,0,.65,0,1.3,0,1.95-.05s1.38-.23,1.64-1c1-1.27,1.14-2.4.46-3.38a2.16,2.16,0,0,0-2-.86c-.56,0-1.12,0-1.67,0a5.49,5.49,0,0,0-2.65-.54c-5.16,0-10.33,0-15.49,0a5.38,5.38,0,0,1-3.88-1.46,32.94,32.94,0,0,0-9.41-5.5c3.49.12,7.35,0,11.21.05,1.69,0,3.39,0,5.08,0a1.66,1.66,0,0,0,1.51-.57h0a8.51,8.51,0,0,0,1-.3,2.07,2.07,0,0,0,1.37-2.48,2.13,2.13,0,0,0-2.14-1.87c-3-.05-6.05,0-9.07-.05l-1.81,0a15,15,0,0,0-5.12-.57c-3.85,0-7.7,0-11.56,0a3.85,3.85,0,0,1-1.95-.41,2.41,2.41,0,0,1-.52-.41l-.23-.16c-.41-.25-2.73-.77-3.85-1.77a2.44,2.44,0,0,1-.94-1.84h0a.39.39,0,0,1,.06-.18.68.68,0,0,1,.5-.25,3.73,3.73,0,0,1,.43,0c2.86-.07,5.72,0,8.58,0a4,4,0,0,0,1.54-.43,4.19,4.19,0,0,0,.68-.45,3.17,3.17,0,0,0,.66-2,2.41,2.41,0,0,0-.25-1A2.66,2.66,0,0,0,478,931c-2.64,0-5.28,0-7.92,0a11,11,0,0,0-5.08-.55c-.3,0-.61,0-.92,0-1.32,0-2.3-.15-2.86-1.59a2.59,2.59,0,0,0-2.76-1.73l-.17,0a.94.94,0,0,0-.55.63.17.17,0,0,0,0,.05c-.18.71.44,1,.77,1.47.53.76.41,1.07-.51,1.1a10.84,10.84,0,0,0-3.8.46h-.12a1.94,1.94,0,0,0-2,1.67l-3.53,3.29,7.29,3.4,9.31,4.32q8.59,4,17.18,8c.37.17,1,.11,1,.82.36.69,1.12.77,1.72,1.07a31.62,31.62,0,0,1,5.7,3.32,15.56,15.56,0,0,1,5.74,9.43c1.19,6.55,1,13-1.48,19.28a14.22,14.22,0,0,1-4.63,6.46,6.37,6.37,0,0,1-3.86,1.3c-1.56,0-3.12,0-4.68,0-.46,0-1-.13-1.33.32s-.88.27-1.33.27h-42.9c-.42,0-.88.12-1.24-.24a7.58,7.58,0,0,1-2.18.21c-7.24,0-14.47,0-21.7,0a3.11,3.11,0,0,0-2.47.9A13.39,13.39,0,0,1,401.77,998.38Z" transform="translate(-58.1 -3.05)" fill="#ff9934"/>
      <path d="M500.26,960.72a28.5,28.5,0,0,1,2,9.23c.1,1.39.65,1.67,1.85,1.67,6.68,0,13.36,0,20,0a3.67,3.67,0,0,1-.94-2.21,27.52,27.52,0,0,0-2.83-9.91,5.61,5.61,0,0,1-.19-.62,6.89,6.89,0,0,1-2.8.51q-8.13,0-16.27,0C499.7,959.37,499.7,959.4,500.26,960.72Z" transform="translate(-58.1 -3.05)" fill="#565260"/>
      <path d="M500.32,989.08c3.2,0,6.42.2,9.62,0,.88-.05,2.23-.12,3.9-.12l7.69.27.36-2.53q.79-5.31,1.72-10.39c-6.54,0-13.09,0-19.64,0-1.06,0-1.59.14-1.73,1.42A30.55,30.55,0,0,1,499.63,988C499.27,988.71,499.37,989.09,500.32,989.08Z" transform="translate(-58.1 -3.05)" fill="#565260"/>
      <path d="M483.43,946.61a10.69,10.69,0,0,0,2.91,1.56,31.42,31.42,0,0,1,9,5.62,3,3,0,0,0,2.12.89l19.52,0c-1.48-1.8-3.59-2.6-5.6-3.57-2.55-1.24-5.08-2.53-7.61-3.82-.2-.1-.28-.41-.41-.62H483.43Z" transform="translate(-58.1 -3.05)" fill="#565260"/>
      <path d="M369.81,922.67a6.42,6.42,0,0,1-3.94,1c-4.68,0-9.36,0-14,0a2.37,2.37,0,0,0-1.37.18c2,1.23,4.1,1.95,6.09,2.94a6.44,6.44,0,0,1,.72.3c3.84,2.55,8.76,2.24,10.53,2.39s3.41.12,7,.09c3,0,5.52-.12,7.28-.2a41.57,41.57,0,0,0-4.24-2.21,3.17,3.17,0,0,1-1.28-.85,39.84,39.84,0,0,1-6.38-3A.74.74,0,0,1,369.81,922.67Z" transform="translate(-58.1 -3.05)" fill="#565260"/>
      <path d="M468.37,937.53c.12,1.58,2.28,2.66,3.41,3.24a12.56,12.56,0,0,0,3.11,1.15c2.92.62,9.38.7,17.79,0A56.6,56.6,0,0,0,481,936l-1.17-.42c-.57.09-1.48.22-2.6.32a30.57,30.57,0,0,1-5.45.26c-1.14-.14-2.51-.46-3.1.27a1.18,1.18,0,0,0-.17.29h0A1.31,1.31,0,0,0,468.37,937.53Z" transform="translate(-58.1 -3.05)" fill="#565260"/>
      <path d="M488.25,998.36a.47.47,0,0,0,.25.2,1.88,1.88,0,0,0,.58,0h21.2a1.17,1.17,0,0,0,.63-.12,9.41,9.41,0,0,0,6.1-3.25,6.35,6.35,0,0,1,2-1.43c-7.24,0-14.47,0-21.71,0-1.31,0-2,.86-2.72,1.54A11.77,11.77,0,0,1,488.25,998.36Z" transform="translate(-58.1 -3.05)" fill="#565260"/>
      <path d="M327.54,913.33c2.12,1,4.28,1.9,6.35,3a12.11,12.11,0,0,0,6,1.15c4-.05,8.07,0,12.1,0h5.71a26.2,26.2,0,0,0-5-2.66l-.78-.36c-1.26-.57-2.58-1-3.85-1.58-.53-.23-1.21-.32-1.32-1.08a3.31,3.31,0,0,1-2.95,1.26c-4.95,0-9.89,0-14.84,0h-1.39A3,3,0,0,0,327.54,913.33Z" transform="translate(-58.1 -3.05)" fill="#565260"/>
      <path d="M458.29,927.14a.89.89,0,0,0,.06.2,3.52,3.52,0,0,1,2.8,2.89c.12.72.6.75,1.14.75H465l5.07,0a20.74,20.74,0,0,0-5.09-2.9c-.33-.15-.66-.32-1-.49-.84-.44-1.72-.79-2.58-1.21-.43-.21-.82-.49-.8-1.06l-1.74,1.34C458.55,926.69,458.23,926.77,458.29,927.14Z" transform="translate(-58.1 -3.05)" fill="#565260"/>
      <path d="M480.44,993.51a20.46,20.46,0,0,0,8.36-.15c2.1-.58,3.56-2.26,4.76-4.05a24.07,24.07,0,0,0,3.77-10.43,38.2,38.2,0,0,0-.44-13.44,16.19,16.19,0,0,0-8.45-10.93c-1.21-.67-2.47-1.26-3.69-1.9a2.08,2.08,0,0,0-1.49-.3,12.4,12.4,0,0,0-5.87,5.48c-3.26,5.41-4.27,11.36-4,17.58.23,5.78,1.58,11.21,5,16A10.19,10.19,0,0,0,480.44,993.51Z" transform="translate(-58.1 -3.05)" fill="#565260"/>
      <path d="M437.48,976.07c-6.63,0-13.25,0-19.88,0-1,0-1.44.28-1.52,1.38a31.62,31.62,0,0,1-2.12,8.93c-.51,1.32-.47,1.4.91,1.4h18.2a3.75,3.75,0,0,0,1.65-.27,32.58,32.58,0,0,0,2.13-10.18C436.9,976.81,436.82,976.26,437.48,976.07Z" transform="translate(-58.1 -3.05)" fill="#565260"/>
      <path d="M433.6,958.87a6.84,6.84,0,0,1-2.8.49H415.45c-1.4,0-1.54.17-1,1.5a24.81,24.81,0,0,1,1.67,8.1c0,1,.54,1.11,1.34,1.11q9.62,0,19.25,0A34.73,34.73,0,0,0,433.6,958.87Z" transform="translate(-58.1 -3.05)" fill="#565260"/>
      <path d="M417.48,946.4a25.65,25.65,0,0,1-5.18.2c-4.07,0-8.14,0-12.24,0,.09.57.56.59.87.74a28,28,0,0,1,8.09,5.32,1.86,1.86,0,0,0,1.44.46l18.71,0a8.85,8.85,0,0,0-2.65-1.79c-2.8-1.41-5.62-2.79-8.42-4.21C417.85,947,417.19,947.07,417.48,946.4Z" transform="translate(-58.1 -3.05)" fill="#565260"/>
      <path d="M393.75,934.91a33.5,33.5,0,0,1-3.34.77,39.12,39.12,0,0,1-14,0c.05.5.41.6.71.73,2.78,1.28,5.58,2.55,8.37,3.82a4.08,4.08,0,0,0,1.76.39h15.58a2.72,2.72,0,0,0,1.38-.28L399.55,938c-1.2-.61-2.68-1.19-4.61-2.34C394.43,935.35,394,935.09,393.75,934.91Z" transform="translate(-58.1 -3.05)" fill="#565260"/>
      <path d="M454.12,931c1.47,0,2.95,0,4.42,0,1.19,0,1.39-.37.87-1.42a4.92,4.92,0,0,0-1.61-1.66c-.08-.12-.16-.11-.25,0a34.28,34.28,0,0,1-3.38,2.86c-.09,0-.13.08-.11.13S454.09,931,454.12,931Z" transform="translate(-58.1 -3.05)" fill="#ff9934"/>
      <path d="M346.27,993.11a51.16,51.16,0,0,0,13.78-21.83A55,55,0,0,0,362.31,955a66.4,66.4,0,0,0-2.67-19.3c-.08-.26-.32-.55-.05-.85l-21.26-11.68h0c3.62,4.57,6.44,8.18,6.66,8.46,2.36,3.06,6.86,13.86,6.36,27.1-.22,5.89-.66,17.43-9,27.18a35.82,35.82,0,0,1-8.93,7.45Z" transform="translate(-58.1 -3.05)" fill="#565260"/>
      <path d="M463.34,935.67c-.48,0-.95,0-1.42,0s-.77-.06-.87.37.27.6.59.74c1,.46,1.94.93,2.94,1.34.41.17.91.55,1.31.09a2.05,2.05,0,0,0,.16-1.75.93.93,0,0,0-1-.79h-1.68Z" transform="translate(-58.1 -3.05)" fill="#ff9934"/>
      <ellipse cx="264.05" cy="953.77" rx="27.93" ry="39.34" fill="#565260"/>
      <ellipse cx="338.22" cy="970.1" rx="18.29" ry="23.6" fill="#565260"/>
      <ellipse cx="338.22" cy="970.02" rx="8.36" ry="11.07" fill="#ff9934"/>
      <path d="M493,974a12.43,12.43,0,0,0-.8-4.94,3.68,3.68,0,0,0-1.29-1.75,1.52,1.52,0,0,0-2.29.14c-1.35,1.42-1.59,3.25-1.82,5a11.75,11.75,0,0,0,.77,6.11c.44,1,1,2.08,2.36,2.11s1.8-1,2.24-2A9.92,9.92,0,0,0,493,974Z" transform="translate(-58.1 -3.05)" fill="#ff9934"/>
      <path d="M310.78,955a12,12,0,0,0,1.69,7.19,10.5,10.5,0,0,0,3.27,3.49,7.73,7.73,0,0,0,8.37,0,10.82,10.82,0,0,0,4.73-7c.82-3.87.63-7.7-2-11.38a9.69,9.69,0,0,0-2.78-2.69,7.81,7.81,0,0,0-8.27,0,9.46,9.46,0,0,0-3.42,3.71A10.62,10.62,0,0,0,310.78,955Z" transform="translate(-58.1 -3.05)" fill="#ff9934"/>
      <path d="M489.81,966.89l-54.19,2.18.06,11.69,54.2,0Z" transform="translate(-58.1 -3.05)" fill="#ff9934"/>
      <path d="M417.31,879.91l.16,66.49,47.64-2c0-.29,0-.58,0-.87l0-5.17,0-2.67,0-4.71c0-.19,0-.38,0-.57,0-.78,0-1.57,0-2.35l-.39-49.35Z" transform="translate(-58.1 -3.05)" fill="#939393"/>
      <path d="M351.69,878.7c0,.24,7.26.12,30.07.55,24.5.47,25,.78,35.55.66,9.26-.11,9.69-.35,29.25-.77,13.62-.29,18-.27,18-.44,0-.43-25.3-1.53-52.55-1.64C380.22,877,351.68,878.22,351.69,878.7Z" transform="translate(-58.1 -3.05)" fill="#565260"/>
      <ellipse cx="381.86" cy="909.55" rx="18.7" ry="26.18" fill="#565260"/>
      <ellipse cx="381.86" cy="910.12" rx="11.49" ry="16.08" fill="#ff9934"/>
      <path d="M404.92,921.73l1.87.64q0-12.3,0-24.6l-2,.19Z" transform="translate(-58.1 -3.05)" fill="#ff9934"/>
      <path d="M399.45,921.4l1.87.63q0-12.13-.05-24.26l-2,.19Z" transform="translate(-58.1 -3.05)" fill="#ff9934"/>
      <path d="M393.48,921.07l1.87.62,0-23.92-2,.18Z" transform="translate(-58.1 -3.05)" fill="#ff9934"/>
      <path d="M356.76,933.58l27.5,12.19,8.5,3.4a25,25,0,0,0-8.5,5.29,25.64,25.64,0,0,0-7.37,13.7,27.21,27.21,0,0,0,3,18.5,26.75,26.75,0,0,0,7.44,8.24q-14.3-.87-29.1-1.41-6-.22-12-.38,3.62-15.55,7.24-31.11Z" transform="translate(-58.1 -3.05)" fill="#565260"/>
    </g>
    <g>
      <circle cx="1462.95" cy="461.68" r="59.12" fill="#72707f"/>
      <path d="M1462.13,459.81c-.26,11.12,32.23,24.25,62,23.19,27.95-1,56.78-14.64,55.83-23.38-.14-1.24-1-3.8-16.9-9.28-21-7.26-43.19-14.94-69.85-8.09C1487.23,443.79,1462.36,450.17,1462.13,459.81Z" transform="translate(-58.1 -3.05)" fill="#565260"/>
      <path d="M1583,454.39c-10.87,26.77-112.92,26.77-123.79,0-7.11-17.49,19.48-59.13,61.89-59.13S1590.06,436.9,1583,454.39Z" transform="translate(-58.1 -3.05)" fill="#ff9934"/>
      <circle cx="1461.14" cy="437.07" r="27.38" fill="#565260"/>
      <circle cx="1461.14" cy="437.07" r="12.92" fill="#ff9934"/>
    </g>
  </g>
</svg>
